<svg xmlns="http://www.w3.org/2000/svg" xml:space="preserve" id="图层_1" x="0" y="0" style="enable-background:new 0 0 360 300" version="1.1" viewBox="0 0 360 300"><style>.st1{fill:#fca104}</style><path d="M0 0h360v300H0z" style="fill:#525188"/><path d="m228 72.5 3.4 3.5h-42.8l3.4-3.5 3.4-3.5h29.2zM231.4 104l-3.4 3.5-3.4 3.5h-29.2l-3.4-3.5-3.4-3.5H210zM228 192.5l3.4 3.5h-6.2c-6.1 0-6.2.1-6.2 2.7 0 3.5-5.5 9.3-8.9 9.3-3.5 0-9.1-5.6-9.1-9.2 0-2.8-.1-2.8-6.2-2.8h-6.2l3.4-3.5c4.4-4.6 7.4-4.5 12.2.2 2.2 2.2 3.8 4.7 3.8 6 0 1.6.6 2.3 2 2.3s2-.7 2-2.2c0-1.2 1.7-3.9 3.7-6 4.8-4.9 7.8-5 12.3-.3M231.4 224l-3.4 3.5c-2.1 2.2-4.3 3.5-5.9 3.5-3.3 0-10.1-6.6-10.1-9.7 0-1.6-.6-2.3-2-2.3s-2 .7-2 2.2c0 1.2-1.7 3.9-3.7 6-4.8 4.9-7.8 5-12.3.3l-3.4-3.5h6.2c6.1 0 6.2-.1 6.2-2.7 0-3.5 5.5-9.3 8.9-9.3 1.5 0 3.9 1.3 5.8 3.2 2.2 2.1 3.3 4.1 3.3 6 0 2.8.1 2.8 6.2 2.8zM231 210v9h-7v-18h7zM231 149.9v14.5l-3.2 3.3c-2.9 3-3.7 3.3-9.5 3.3H212v-7h12v-28h-12v-7h6.2c5.6 0 6.5.3 9.5 3.2l3.3 3.2zM231 84.5V88h-12v11h-7v-5.7c0-5.1.4-6.1 3.2-9 2.9-3 3.7-3.3 9.5-3.3h6.3z" class="st1"/><circle cx="227.5" cy="95.5" r="3.5" class="st1"/><path d="M219 155.5v3.5h-18v-7h18zM219 144.5v3.5h-18v-7h18z" class="st1"/><path d="M208 167.5v3.5h-6.2c-5.6 0-6.5-.3-9.5-3.2l-3.3-3.2v-29l3.2-3.3c2.9-3 3.7-3.3 9.5-3.3h6.3v7h-12v28h12zM208 93.2V99h-7V88h-12v-7h6.2c5.6 0 6.5.3 9.5 3.2 3 2.9 3.3 3.7 3.3 9M196 210v9h-7v-18h7z" class="st1"/><circle cx="192.5" cy="95.5" r="3.5" class="st1"/><path d="m168 72.5 3.4 3.5H159v8.2c0 7.9-.1 8.3-3.2 11.5-4.1 4.2-7.2 4.3-11.5.1-3.2-3.1-3.3-3.4-3.3-11.5V76h-12.4l3.4-3.5c4.4-4.6 7.4-4.5 12.2.2 3.8 3.7 3.8 3.8 3.8 11.5 0 7.1.2 7.8 2 7.8s2-.7 2-7.7c0-7.5.1-7.8 3.7-11.5 4.8-4.9 7.8-5 12.3-.3M171.4 164l-3.4 3.5c-2.1 2.2-4.3 3.5-5.9 3.5-3.1 0-10.1-6.5-10.1-9.4 0-2.8 6.9-9.6 9.7-9.6 2.1 0 2.3-.4 2.3-5.5V141h7v5.7c0 5.1-.4 6.1-3.2 9-2.1 2.2-4.1 3.3-6 3.3-2.3 0-2.8.4-2.8 2.5 0 2.4.3 2.5 6.2 2.5z" class="st1"/><path d="M171 92.7v11.7l-3.2 3.3-3.2 3.3h-29l-3.3-3.2-3.3-3.2V81h7v23h28V81h7z" class="st1"/><circle cx="167.5" cy="132.5" r="3.5" class="st1"/><path d="M159 141.7v6.3h-7v-6c0-5.3-.2-6-2-6s-2 .7-2 6v6h-7v-6.2c0-5.6.3-6.5 3.2-9.5 4.1-4.2 7.2-4.3 11.5-.1 3 2.9 3.3 3.7 3.3 9.5M148 161.4c0 1.1-1.7 3.7-3.7 5.8-4.8 4.9-7.8 5-12.3.3l-3.4-3.5h6.2c5.9 0 6.2-.1 6.2-2.5 0-2-.5-2.5-2.7-2.5-1.7 0-3.9-1.2-6-3.2-3-2.9-3.3-3.7-3.3-9V141h7v5.5c0 5 .2 5.5 2.2 5.5 2.8 0 9.8 6.7 9.8 9.4" class="st1"/><g id="XMLID_00000156587126384978542940000009682769049135650203_"><circle cx="132.5" cy="132.5" r="3.5" class="st1"/></g></svg>