<svg xmlns="http://www.w3.org/2000/svg" viewBox="0 0 640 640"><g data-name="图层 2"><g data-name="图层 1"><path d="M.5.5h639v639H.5z" style="fill:#171717"/><path d="M639 1v638H1V1zm1-1H0v640h640z"/><path d="M428.32 105.76c-.51-3.38-.66-7.29 2.27-9.11 3.42-2.13 7.09-.11 10.11 2.2 5.64 4.34 11.22 8.75 17.12 13.37 1-3.12.14-5.51-1.84-7-4.08-3.09-5.61-9.75-12.43-9-2.09-4.66-7.47-7.64-7.39-13.27 0-3.64-1.5-5.42-5.11-7v13.72c0 1.93.52 4-2.76 4.09-2.68.06-1.75 2.7-2.23 4.3s.12 4.44-3.09 4-8.31.92-8.4-3.2c-.14-6.73-3.62-8.11-8.9-8.59-.45 0-.87-.43-1.52-.76 1.27-2.75 2.55-5.45 3.76-8.17 2-4.5 3.26-8.22.85-13.87-2.62-6.13 0-13.74 2.38-20.33.64-1.77 3-2.52 5.21-1.47 5.7 2.71 11.41 5.38 17.11 8.09 2.25 1.07 1.53 2.6.5 4.09-2.44 3.52-6.63 6.89-5.48 11.29 1.06 4.08 6.39 4.76 9.86 6.84 2.7 1.61 3.08 3.58 2.69 6.23-.52 3.52.37 5.9 4.56 5.92a7.56 7.56 0 0 1 5.22 2.64c2.44 2.44 4.3 1.46 5.2-1.34 2.47-7.58 8.18-12.37 14.13-17 2.42-1.89 4.7-2 7.19.06q19.28 15.9 38.66 31.68c3.26 2.66 3.31 5.13-.14 7.62-2.93 2.12-5.84 4.27-9.3 6.81-.57-12.4-7.93-19-17.49-24-2.79-1.44-3.77-1-4.25 2.41-.61 4.28.28 7.43 3.67 10.11a57.41 57.41 0 0 1 7.5 7.3c-3.57-.86-5.62-3.89-8.36-5.91-2-1.47-3.85-3.18-5.81-4.74-4.15-3.29-7.31-2.39-9 2.71-1.41 4.29-1 8.22 2.94 11.2 5.95 4.55 11.83 9.22 17.85 13.68 4.38 3.25 5.92 3 8.62-1.89 3.58-6.43 9.08-10.45 15.5-13.59 3.37-1.65 5.9-1.2 8.31 1.77 11.86 14.63 23.82 29.17 35.72 43.76 1.52 1.86 3 3.8 2.77 6.56-4.55-6.38-10.08-11.84-15-17.78-4-4.79-8.57-9-14.16-11.7a59.47 59.47 0 0 1-17.52-13c-4.43-4.69-6.84-4.15-9.27 1.65a15.86 15.86 0 0 1-7.3 8c-3.93 2.11-3.44 4.08-.55 6.52.37.32.67.74 1 1.1 1.83 2 3.39 5 5.55 5.54 2.9.68 3-3.55 4.82-5.24 3.1-2.86 6.19-3.09 9.33-.38a31.47 31.47 0 0 1 8 10.06l-.58.54c-2.88-2.62-4.16-7.12-9.71-6.41-3.62.46-4 2-3.75 4.81.2 1.92 1.35 3.38 2.38 4.88q9.16 13.41 18.36 26.8c2.08 3 4.1 6.07 8.05 7 1.82.44 2.38 1.54 1.13 3.28-3 4.23-2.57 8.76-.92 13.45a42.51 42.51 0 0 0 8.88-6.06c1.29-1.25 3.27-2 4.55-.78 4.11 3.93 8.85 7.56 9.65 14.67-3.61-2.1-5.66-4.87-7.82-7.38-2.67-3.11-4-1.69-5.34 1-1.55 3.27-.89 6.59.21 9.75q6.15 17.67 12.57 35.26c1.81 4.92 5.23 6.66 10.33 4.76 6.93-2.59 14-2.62 21.18-2.3 4.12.18 6.42 2 6.75 6.35 1.46 19.44 3 38.86 4.6 58.29.29 3.7-1.13 5.79-5.12 5.5-4.31-.32-8.61 1-13 0-2.77-.63-3.76-1.47-1.21-3.7 4.52-4 6-9.11 5.47-14.87-.92-10.12-2-20.22-3-30.33a3.88 3.88 0 0 0-.31-1.45c-.91-1.73-1.49-4.68-3.4-4.47-2.58.28-1.1 3.22-1.4 5-.56 3.2 1.18 7-5.36 6.51-3.48-.28-7.43 4.09-7.52 8.74q-.33 17 .19 34c.17 5.58 3.71 8.27 9.48 7.58a31 31 0 0 1 17.52 2.59c6.79 3.23 8.1 5.1 6.69 12.42-3 15.69-6.29 31.33-9.5 47-.56 2.76-1.26 5.51-2 8.23-.91 3.12-3.12 4.22-6.18 3.34a78.73 78.73 0 0 1-8.52-2.83c-1.57-.64-4.35-.3-4.37-2.47 0-1.94 2.52-2.26 4.32-3.14.54 5.42 4.88 5.35 8.52 5.66 4.06.34 4.52-3.25 5.27-6.11 2.24-8.51 1.53-17.21 1.45-25.85 0-1.42-.29-3.58-1.7-3.8-2.43-.36-1.63 3.28-4.21 4.09.38-8 .85-15.7 1.08-23.43.32-10.19-8.3-16.43-18.13-13.28a2.29 2.29 0 0 0-1.68 2.18c-.48 4.14-1 8.27-1.42 12.41-.34 3.41 1.34 4.63 4.55 3.71 2.72-.78 5.37-1.79 8.09-2.56 1.15-.32 2.77-1.36 3.42.5s.79 3.83-1.24 4.85a14 14 0 0 1-4.78 1.26c-5.71.55-9.21 3.67-10.53 9.1-2.71 11.14-4.29 22.54-8 33.48-1.63 4.83 2.16 6.5 6 7.25a36.22 36.22 0 0 1 16.62 7.59c5.57 4.64 6.21 7.57 2.71 13.82-9.28 16.55-18.71 33-27.9 49.63-1.85 3.36-3.43 3.8-6.38 1.37-2.56-2.11-5.54-3.7-8.24-5.64-5.79-4.18-6.34-6.45-2.92-12.53 1-1.78 1.55-4.05 4.15-5.17 1 3-1 5.07-1.83 7.28-2.34 5.91-1.17 8.24 5.09 9.41 7.55 1.41 7.34 1.38 8.55-6.09.92-5.71 2.48-11.32 3.74-16.94-1.38-.94-2.28 1.45-3.94.19 1.7-3.84 3.55-7.7 5.11-11.66 2.14-5.45.78-7.79-5-8.67-2.29-.35-4.66-.13-7-.36-1.13-.11-3 .91-3.22-1a3 3 0 0 1 3.15-3.21c2.65-.08 5.32.34 8 .27 6.17-.17 10-3.9 10.32-9.94.29-4.91-1.9-6.79-6.75-5.48-3.85 1-7.63 2.34-11.39 3.68a23.16 23.16 0 0 1-7.64.94c1.86-5.39 3.23-10.17 1.61-15.51-1.1-3.62 3-4.51 4.77-6.78 1.37 1.17.52 2.38.68 3.44.48 3.2 1.76 3.67 4.21 1.53a21.46 21.46 0 0 0 7.8-18.14c-.39-6.63-.82-13.3-3.09-19.67-1.28-3.6-.86-6.85 2.41-9.41 2.38-1.86 3.81-4.24 2.63-7.41s-2.7-6-6.54-5.88c-2.55.06-2.26-1.33-1.91-2.84a22.86 22.86 0 0 1 1.19-3.27c3.58-8.84.78-20.34-6.27-26.51-1.51-1.32-2.31-.38-3.44.26-3.09 1.77-4.25 4.94-5.54 7.84-1.17 0-1.36-.62-1.19-1.33 1.07-4.44 3.46-8.06-4.14-10.6-5.24-1.75-9.33-8.42-7.54-15.78.19-.8.31-2.3.51-2.31 6.5-.27 5.56-6.72 8.32-10.05 1.56-1.88 2.45-4.33 3.6-6.54 3.64-7 2.69-16.56-2.55-22.44a62.56 62.56 0 0 1-6.72-9.88c-1.55-2.6-1.88-5.28.28-7.87 3.35-4 2.14-7.54-1.45-11.12-1.8 3.2-3 6.55-7.68 6.42-2-.06-2.56 3.18-3.69 5-1.57 2.53-3.26 3.63-4.63-.14-1-2.6-2.67-4.94-2.94-7.84 2-.56 3.75-.11 5.56.14 2.09.28 4.28.43 4.56-2.38s-1.13-6.21-3.52-5.61c-5.75 1.46-10.66-.92-16.18-2.48.22 2.66.51 4.61.51 6.56 0 1.67-.36 3.74-2 4.24-1.88.58-2.8-1.42-3.51-2.87-1-2.08-1.82-4.27-2.91-6.85-6.78 5.47-12 1.61-17.06-2.76-4.77-4.09-8.93-9.18-15.78-9.88-1.71-.17-4-1.45-5 .44-.9 1.58 1.2 2.84 2.06 4.16 3.75 5.72 7.67 11.27 13.41 15.32 3.54 2.49 4.81 6.69 6.54 10.46.95 2.07 1.52 4.67 4.83 3a2.22 2.22 0 0 1 1.46 0c3 .8 8.73 11.94 7.19 14.55-3.86 6.52-2.26 12.87 0 19.24 2 5.64 4.49 11.13 5.16 17.16.12 1.05 1 2.55-.56 3-2 .64-1.84-1.34-2.22-2.48-.68-2-1.27-4.06-2.17-7-2.27 4.8-.14 10.05-4 13.44a7.92 7.92 0 0 1-3.72-5.09c-2.77-8.89-5.52-17.79-8.44-26.64-1-3.11-1-6.23 1.05-8.54 3.42-3.93 2.29-7.78-.28-10.84-4.8-5.71-7.86-12.18-10.39-19-.55-1.48-1.47-2.76-3.33-2.29s-1.34 2.06-1.36 3.31c-.05 3.33 0 6.65 0 10.78a28.25 28.25 0 0 1-8.34-9.43 40 40 0 0 0-9.67-11.31c-5.33-4.54-10.5-9.26-15.84-13.78-5.77-4.89-11.13-10-13.39-17.59-1-3.26-3.6-5.54-6.47-7.39-10.53-6.77-21.34-13-33.43-16.59-3.37-1-6.24-2.36-6.78-6.36-.23-1.74-1.69-2.5-3.14-2.87-4.54-1.18-9.12-1.9-14.26-.06 2.88 2 6 2.11 8.68 3.28.93.4 2.63.09 2.53 1.8-.08 1.27-1.19 2-2.25 2.47a13.52 13.52 0 0 1-5.88.88c-8-.2-16-.48-24-.54-4.35 0-7.36-1.33-8.36-6-.92-4.34-4.68-2.81-7.41-3-3-.17-5.72.93-7 3.84-1 2.3 1.09 1.75 2.26 1.85 4 .33 8.41-1.09 11.82 2.52-1.25 2.17-3.26 2.72-5.44 3l-30.2 4c-3.37.45-5.89-.67-7.36-3.81-1.25-2.66-3-4.93-5.88-5.76-2.43-.7-5.49-2.63-6.06 2.27-.17 1.42-1.68 1.95-3.05 2.23-3.38.71-5.41 3-7.19 6.13 2.76 2.19 5.82 1.77 8.87 1.28 3.61-.58 7.21-1.26 10.83-1.76 1.36-.18 2.92.28 3.29 1.65.34 1.21-.93 2.12-2 2.52-11.25 4.11-22.36 8.6-34 11.55a3.38 3.38 0 0 1-2.44 0c-5.46-4.08-9 .31-12.86 2.88a51.52 51.52 0 0 0-9.61 7.75q6.12-3.17 12.23-6.33c.89-.46 1.7-1.07 2.61-1.47 1.55-.7 3.6-1.28 4.49.26s-.93 2.6-2.18 3.46c-7.69 5.27-15.67 10.17-23 15.9-6.09 4.76-11.7 2.85-18.11.74-1.39 6.82-5.74 12.43-10.55 17.76l1.06 1.11 18.48-14.19c.59 3.06-1 4.48-2.18 5.86-6.55 7.77-13.24 15.43-19.83 23.17-2.31 2.71-4.87 4.5-8.67 3.45a4.1 4.1 0 0 0-5 2.41 112.65 112.65 0 0 0-7.69 19.39c3-5 6.07-10 9-15.06 1.23-2.11 2.67-4.61 5.24-3.16 2.14 1.2 1.11 3.86.18 5.88q-6.82 14.71-13.67 29.42c-1.39 3-3.25 5.17-7 3.54-4.26-1.85-1.85-4.5-.83-7 .42-1.06.79-2.14 1.39-3.79-2.25.55-3.07 1.71-3.31 3.39q-3 21-5.89 42c0 .21.33.48.52.74 1.7-.15 1.43-1.58 1.68-2.61 1.8-7.61 3.51-15.25 5.37-22.84.61-2.47.83-6.34 4.2-5.7s1.67 4.19 1.29 6.43c-1.91 11.32-4 22.61-6.08 33.9a6.86 6.86 0 0 0 0 3.4c3.54 11.59 3.47 23.69 4.89 35.57a41.15 41.15 0 0 0 3.18 10.91c3.76 9.24 6.68 18.82 11 27.84 1.16 2.42 1.8 5.86-.4 6.79-2.44 1-3.88-2.06-4.71-4.51-2.85-8.34-5.78-16.66-8.66-25-.7-2-1.25-4.13-3.17-5.48-2.43 2-1.84 4.26-.87 6.58 3.84 9.21 7.73 18.4 11.56 27.61 1.39 3.33 3.66 5.11 8.52 4-2.48 3.78-3.25 7-2 10.44 1.15 3.24 2.89 6 6.81 7.61-.92-3.25-3.52-5.49-3.09-8.82.29-2.27.9-3 3-2 .15.07.35.06.47.16 8.82 7.35 17.07 15.29 23.62 24.78 1.24 1.8.87 4.15.36 6.34-.8 3.48.83 4.94 4.26 4.94 4.72 0 9.38-.64 12.94 4.24 1.66 2.29 5.69.77 8.65.77 4.16 0 8.22-.52 11.38 3.43 1.55 1.94 4.39.8 6.69.77 5.26-.06 10.83-2.24 15.09 3.41 1.67 2.21 4.64.63 7-.34 7.48-3.1 9.08-2.53 12.79 5a42.08 42.08 0 0 0 7.29-8.64c2.08-3.29 4.64-3.89 8.07-2.19 4 2 8.12 3.83 12.19 5.73 2.84 1.33 3.55 3.38 1.93 6.08-3.91 6.5-8.24 12.52-16 15-3.35 1.05-6.1 3.23-9.17 5.69 2.74 2.09 5.6 1.74 8.26 2 4 .35 8 .52 12 .85a5.39 5.39 0 0 1 4.33 2c3.56 4.84 5.6 5.31 12.18 3.09-1-1.18-2.43-.65-3.62-.83-2-.29-4.59-.55-4.65-2.76s2.45-2.77 4.44-3.31a151.25 151.25 0 0 1 23.56-4.28c14.18-1.54 26.29-9.32 39.77-12.91a71.82 71.82 0 0 0 25.32-12.44c6.23-4.72 12.94-8.81 19.28-13.39 3.47-2.51 6.63-3.1 9.72.25 1.8 1.95 3.11 1.81 4.74-.24 2-2.52 4.28-4.82 5.74-8.07-2.41 1.33-4.84 2.63-7.22 4-1.55.9-3.32 1.53-4.62.19-1.54-1.57-.07-3.06 1-4.32a54.64 54.64 0 0 1 4-4.48c14.2-13.76 24.1-30.39 33.5-47.58 7.6-13.9 10.68-28.94 13.69-44.12 1.15-5.79 1.53-11.82 9.37-12.68 1.55-.17 2.37-1.85 2.41-3.46a29.32 29.32 0 0 0-1.07-10c-.92 3.15-1.74 6.32-2.81 9.42-.41 1.18-1.08 2.91-2.43 2.86-1.61-.06-2.49-1.78-2.58-3.27-.64-11.31-1.28-22.62-1.62-33.94-.08-2.6 6.24-7.06 9-7 1.95 0 2.52 1.41 2.84 2.91.78 3.57 1.4 7.18 2.18 10.76.36 1.67.26 3.58 2.95 5.79.34-6.31.65-11.63.92-17 .16-3.2 8.53-9.54 11.13-7.92s2.48 5.46 3.93 8.72H517c.81 1.5 1.17 2.68 1.93 3.46 7.72 7.94 7.76 18.14 8.41 28.17.18 2.93 1.77 5.34 3 7.88 5.59 11.61 2.13 21.84-9.38 27.37-2.77 1.33-5.13 3.14-4.67 6.35 1 6.94 3.14 13.76.37 20.95l1.61.17 4.91-11.29c3.63 6.7.87 18.53-5.31 23.37-5 3.94-7.93 8.89-7.45 15.42.19 2.45-1.3 4-2.43 5.83s-2.81 3.8-.57 6.55c1.18-2 2.09-3.67 3.19-5.24a2.64 2.64 0 0 1 3.51-1 2.41 2.41 0 0 1 1.1 3.43c-4.64 8.69-6.07 19.09-14.47 25.84-4.32 3.48-7.08 8.49-9.18 14.12l21.7-10.44-2.6 7.35c6.54-1.26 12.55-2.35 18.54-3.58 2.87-.59 4.44-2.16 3.35-5.38-1-3-.57-7.14-5.66-6.59-.83.09-1.65.23-2.48.29-7.84.52-8.14.06-5.31-7.11.8-2 1.42-3.39 3.71-1.55 1.72 1.39 3.81.94 5.78.85a74.2 74.2 0 0 1 15 .71c2.82.43 3.49 1.74 2.17 4.06-3 5.2-5.64 10.58-9.35 15.33a10.05 10.05 0 0 1-5.32 3.55c-6.61 1.85-12 5.66-16.92 10.24a8.71 8.71 0 0 1-8.09 2.43c-4.91-.78-8.74 2.55-10.9 6.48-2.26 4.1-3.46 8.85-4.33 14.75 11.92-6.79 24.83-10.25 32.36-21.89 2-3.17 4.11-4.21 6.95-.9 1.68 1.95 4.09 2.82 6.36 3.85 6.53 2.95 10.33 8.21 12.4 14.86 1 3.2.85 6.46-1.57 8.92-5.46 5.57-11.15 10.91-17.52 17.08 2.32-5.35 2.11-10.68 7-14 2.35-1.57 1.18-4.57 1.86-7.15-.94 0-1.58-.19-1.79 0-9.71 9.88-21.91 16.33-32.91 24.38-4.84 3.55-9.15 7.27-9 14.07-7.91-3.86-9-9.17-3-15 7.38-7.22 15.22-14 22.77-21 1-.93 3.63-1.7 1.85-3.75-1.43-1.66-3.56-2.58-5.83-1.15a7.68 7.68 0 0 0-1.88 1.62c-9.5 12-22.48 19.7-35 28a40.31 40.31 0 0 1-7.71 3.46 26.66 26.66 0 0 0-9.57 5.87c4.56.42 8.1-.76 11.67-1.43 7.87-1.48 10.48-.13 13.28 7.45 1.44 3.89 2.63 7.88 3.84 11.86.78 2.59.39 5.27-1.65 6.93-6 4.91-13.3 7.57-20 11.24l-.76-1.24c2.58-1.91 5.29-3.69 7.71-5.78 1.28-1.11 3.22-2.84 1.88-4.53s-3.62-2.85-5.81-1.57c-6.95 4.06-14.83 4.75-22.42 6.52-7.09 1.65-12.26 6.51-17.74 10.83-1.87 1.46-.72 3.36-.88 5.1-.19 2 1.36 5.26-.93 5.84-2.71.68-2.31-3-3.15-4.69a70.05 70.05 0 0 1-3.14-8.41c-1.95-5.86-1.28-7.61 4.3-10.19 8.46-3.91 17-7.67 25.49-11.48.91-.41 1.86-.73 2.74-1.2 1.21-.64 2.51-1.56 2-3.05s-2.32-1.32-3.44-.75c-11.87 6-25.06 9-36.51 16-3.31 2-4.51 4.29-3.32 8.25 2.21 7.07 1.36 14.49 1.21 21.79-.07 3.61-2.29 5.11-5.33 5.47-17.36 2.11-34.72 4.26-52.11 6-8.52.87-10.42-1.14-11.16-9.89-.7-8.41 1.42-11 9.51-11.93 4.13-.46 8.26-1 12.38-1.58a3.55 3.55 0 0 0 2.64-1.61l-29 3.23c-2.32.25-2.21 2.26-2.61 3.73-1.78 6.58-3.52 13.18-5.08 19.82-1 4.12-3.25 6-7.48 5.47q-28.29-3.28-56.58-6.52c-4.1-.47-5.46-2.4-4.05-6.49a49.92 49.92 0 0 0 1.86-8.77c1-6.36 2.32-7.69 8.83-7.3 10.31.62 20.61 1.49 30.91 2.22 1.1.08 2.3.5 3.85-1-7.9-1.38-15.34-2.72-22.8-4-9.19-1.54-18.42-2.87-27.58-4.58-2.63-.49-3.91.25-5.22 2.39-3.83 6.24-7.87 12.36-11.83 18.52-.89 1.38-1.5 2.93-3.82 1.9-8.61-3.73-17.33-7.38-26.66-11.38 3.29-2 6.36-1.4 9.29-2.41-2.19-6.28-4.86-11.87-12.22-13.64a9.07 9.07 0 0 1-7.24-8c-.55-4.32-2.35-7.93-4.58-12l21.74 10.73.52-.83c-1.86-1.13-3.7-2.29-5.58-3.4-9.17-5.43-18.43-10.7-27.47-16.34-3-1.84-4.41-1.45-6.2 1.42a45.82 45.82 0 0 1-13.55 13.83c-5.39 3.58-9.25 2.36-12.42-4.24 2.28 0 4.36.09 6.43 0s4.15-.42 4.77-2.81-.82-4-2.56-5c-11.69-6.92-18.49-18.51-27.31-28.18-4.17-4.58-4.44-9.23-2.18-15 10 7.76 17.17 18.28 28.15 25.12.68-2.61-.85-3.69-2.17-4.73a169.37 169.37 0 0 1-29.22-30 13.8 13.8 0 0 0-21-1.14 32.21 32.21 0 0 1-15.83 9c-3.58.85-6.14-.09-8-3.31-9.91-17.36-18.83-35.23-27.27-53.34-1.69-3.62-.71-6.07 3-7.54 3.25-1.29 6.5-2.56 9.71-3.94 4.44-1.91 7.24-.44 9.16 3.85 4.28 9.57 8.69 19.08 13.12 28.58 2.87 6.16 2.76 5.66 7.71 1 6-5.61 5.3-11.15 2.09-17.53-3.43-6.84-6.61-13.81-9.92-20.71-4.19-8.76-11.71-11.4-20.61-7a37.68 37.68 0 0 1-16.88 3.79c-4 0-6.23-1.69-6.91-5.65-2.24-13.12-4.61-26.23-6.76-39.37-.32-2-1.24-5.37.81-5.79 2.82-.58 2.25 3.09 2.76 4.86 1.75 6.16 3.71 11.85 9.3 16 4.11 3 5.94 8 6.78 13a27.39 27.39 0 0 0 1.87 6.48c3 6.7 3.83 7 10 3.31 2-1.2 4.1-1.15 6.27-1.15 6 0 6.66-1.07 4.77-6.89a44.09 44.09 0 0 1-1.16-4.83c-1.31-6.58-5.55-9.49-11.1-5.9-6.6 4.27-9.73 2.77-14.4-2.95-5.72-7-9.81-14.16-10.21-23.18-.25-5.73-3-10.5-5.41-15.42-1.3-2.68-1.16-3.63 2.13-4 13.36-1.48 14.61-.71 16.82 12.32 1.43 8.37 2.51 16.8 4 25.16 1 5.35 1.93 5.65 6.45 2.8a24.61 24.61 0 0 0 3.32-2.22c3.36-3 6.51-4.67 8.87 1 1.57-1.45.51-2.38 0-3.28-6.65-11.53-10.8-23.67-11.17-37.23-.3-10.89-4.75-14.4-15.32-13.28-7.81.83-14.75-1.73-21.86-4.11-2.86-1-1.86-3.23-1.89-5-.2-17 3.17-33.43 7.46-49.73 1-3.87 1.94-7.75 3-11.61.86-3.21 2.74-4.75 6.28-3.95A79.69 79.69 0 0 1 61.1 262c1.83.77 3.45 2.36 2.77 4.16s-2.55.17-3.87-.05c-4-.68-7-.2-7.17 4.88a7 7 0 0 1-2.19 5c-1 .41-1.14-.18-1.43-.55-1.13-1.49-.5-4.62-3-4.56-2.15.06-3.62 2.26-4.7 4.15-2.54 4.43-2.67 9.59-3.92 14.4-.61 2.32 2.41 2.09 3.94 2.59 7.27 2.33 8.53 4.49 5.36 11.4-3.89 8.47-1.32 16.76-.18 25.18 2.82-4.35 2.64-9.34 3.29-14.09 1-7.31 1.78-8.22 9-8.23 6.62 0 11-3.45 11.88-10.36 1.53-12.07 3.57-24 5.51-36 .41-2.55.06-5.22.06-8.18a50.11 50.11 0 0 1 6.21 2.33c2.37 1.26 3.74-.08 5.2-1.46a3.74 3.74 0 0 0 .77-5c-4.37-6.88-8.85-13.69-13.35-20.49-1.31-2-2.38-1.14-3.26.52-2.34 4.45-2.37 9.53-3.52 14.27-.82 3.41 4.37 5 5.77 8.77-8.47-1.68-16.27-4.26-23.14-9.12-3.82-2.68-4.78-5.8-3.08-10.33 5.69-15.15 12-30 21.26-43.37 2.08-3 3.52-6.44 5.63-9.41 1.13-1.58.77-5.88 4.88-3.53s4.71 4.55 2 8.49c-5.08 7.42-10.17 14.83-13.88 23.08a60.13 60.13 0 0 0-4.87 14.64c-.26 1.53-1.19 3.23.91 5l13.06-20.62c4.34-6.87 8.67-13.74 13.37-20.43.15 3.27-1.45 6-2.56 8.77-3.49 8.82-7 17.62-10.72 26.35-1.73 4.08-.12 5.5 3.77 5.75 5.11.32 8.88-1.53 10.41-6.6 2-6.46 5-11.62 11.72-14.51 3.65-1.58 5.76-5.44 7.51-9.1.64-1.34 1.63-2.9.86-4.21-1-1.68-2.7.59-4.24-.23a20.69 20.69 0 0 1-.12-3.36c.65-5.21-1.37-8.27-6.42-10.27-6.27-2.49-10.2-7.82-13.47-13.58a5.69 5.69 0 0 1 .9-7.31Q108.77 134.4 129.5 112c2.47-2.67 4.72-2.75 7 .18 1.14 1.43 2.49 2.7 3.63 4.13 5.69 7.14 5.57 10-.63 16.74s-12.5 13.42-18.62 20.24c-1.08 1.2-3.57 2.69-2.21 4.38a6.16 6.16 0 0 0 7.27 1.86 15.9 15.9 0 0 0 4.39-3.21q13.13-12.67 26.14-25.47c5.72-5.62 5.43-9.44-.95-14.32-.93-.7-1.91-1.34-2.82-2.06s-1-2.25.08-2.28c2.95-.06 6.41-1.55 8.57 2 .34.57.61 1.18.92 1.78 6.72 13.15 10.28 12.73 24.91 9.47a7.39 7.39 0 0 0 5.24-4.3c3.12-7.06 8.66-11.22 16.65-13.42-2.16-1-3.95-1.82-4.34-3.87-.81-4.25-2.6-4.14-5.37-1.39-3.88 3.84-8.91 5.72-13.82 7.81-2.4 1-4 .58-5.6-1.47-6.08-7.76-5.53-11.63 2.62-17.07 6.88-4.6 6.88-4.6 8.59-9.65-3.66.67-6.56 2.56-9.61 4-10.16 4.64-20.2 9.53-28.93 16.64-2.32 1.89-3.38 1-4.56-1.1-2.27-4-1.42-8.8 2.83-11.33 16.59-9.9 33.32-19.55 50.76-27.89 3.49-1.67 6.13-.77 7.61 3a4.66 4.66 0 0 0 .22.45c6.37 13 5.16 16.71-7.63 23.3-6.51 3.34-13.16 6.41-19.57 9.93-1.48.81-5.05 1.23-3.4 4.25 1.36 2.48 3.81 4.42 7.09 3.43a31.21 31.21 0 0 0 5.43-2.48C204 97.46 216.28 90 229.23 83.88c3.34-1.57 4-4.07 1.84-6.84-5.39-6.84-5.43-14.76-5.21-22.84.11-4.1 1.94-6.6 6-7.39 18.77-3.7 37.56-7.35 56.33-11.08 4-.79 6.1.49 6.24 4.72.1 3 .37 6 .64 10.27-3.76-4.42-7.77-4.94-12.42-3.74 1.39-3 4.78-2 6.51-4.63-3.22-1.84-6.7-2.61-8.76.57-2.66 4.11-5.88 6.62-10.77 7.23 6.94 1.66 12.9 5.87 20.07 5.76a2.54 2.54 0 0 1 1.95 1.24c.43 1.15-.73 1.9-1.56 2.11-2.72.69-5.51 1.15-8.28 1.67-8.17 1.54-16.36 3-24.52 4.65-1.05.21-3.19-.28-2.9 1.77a3.09 3.09 0 0 0 3.61 2.79c13.74-2.75 27.94-1.29 41.62-4.65 4-1 5.09-3.94 4.48-7.17-1.4-7.39.86-14.15 2.6-21.09 1-4.1 3.61-5.91 7.54-5.82A481.72 481.72 0 0 1 372 35.9c3.18.46 4.24 2.23 3.86 5.2a105.62 105.62 0 0 1-3.81 16c-.91 3.09-3.32 3.33-6 3-8.91-1.19-17.82-2.34-26.74-3.51-.33 0-.65-.13-1-.16-3.16-.21-7.71-.72-8.22 2.52-.57 3.56 3.65 6.16 7.07 6.41 12.64.93 25.12 3 37.68 4.55 3.75.46 5.48-1.92 6.23-5.13 1.59-6.82 3.85-13.43 5.92-20.1 1.18-3.8 3.4-5 7.05-4.56 3.14.43 6.3.87 9.16 2.3s4.6 3.72 3.52 7.3-3.12 5.34-7 4.54a81.48 81.48 0 0 0-8.37-1.35c-4.74-.47-5.37.41-4 4.94a6.78 6.78 0 0 0 5.65 4.87c3 .55 4.51 2.14 4.13 5.14-.4 3.16.19 6.88-4.07 8.21-4.92 1.55-9.86 3.05-14.7 4.82-6.76 2.47-7.52 6.89-2 11.32 2.58 2.06 5.38 3.86 8.56 6.12.19-5.06-2.54-6.88-6.44-7.91 2.28-3 5.41-3.54 8.56-2.89 7.33 1.5 14.6 3.33 21.88 5 1.49.35 3 .84 3.15 2.71s-.9 2.82-1.85 4.24c-3.7 5.53-5.88-.09-9.1-1.26 1.18 3.61 2.19 6.73 3.19 9.84.92 2.82 3.5 2 4.39 1 5.72-6.69 12.51-6 19.73-3.48-.2 1.69-.4 3.37-.61 5.21-9.59-5.38-13.3-4.51-13.37 3.07.61-.47 1.11-.82 1.56-1.22 1.88-1.73 4.34-2.69 6.32-1.21a5.88 5.88 0 0 1 1.76 6.38c-.91 2.24-3.8 2-6.07 2.12s-3.92-1.54-5.53-3c-3.47-3.13-7.16-3.62-11.49-1 11.07 7.51 22.12 12.22 35.49 7.15 5.43-2 5.68-1.39 1.72-5.83a8.49 8.49 0 0 0 6.84-4.92c-3.83-2.46-3.83-2.46-9.31-1.76l3.79-6.58c.58-1 1.38-2 .28-3.14-1.34-1.36-2.39-.29-3.44.53-2.37 1.98-4.75 4.08-8.05 4.38m-162.86 387.8c7.5-6.57 10.89 3.4 17.23 4.35-3.82-6.17 1-7.49 4.69-9.47 2.18-1.19 4.34-2.45 6.61-3.45a32.32 32.32 0 0 0 14.09-12.26c.92-1.4 3.14-2.76 1.89-4.61-1.09-1.61-3.29-2-5.37-2.17a7.88 7.88 0 0 0-5.16 1.48c-2.22 1.57-3.48 5.05-7.44 2.65-1.05-.63-2.73 1.58-2.87 3.4-.12 1.49.08 3 0 4.48-.12 3.64-5.06 6.68-7.79 4.39-2.09-1.75-3.47-1.09-5.34-.47a26.05 26.05 0 0 1-4.8 1.17c-1.26.15-2.91.45-3.69-.76s.4-2.52 1.16-3.53c2.34-3.11 4.78-6.14 7.18-9.2a93.16 93.16 0 0 1-20 8.29c10.55.38 8.83 7.79 9.26 14a13 13 0 0 0 .4 1.87c-3.84-4.55-4.16-.57-4.74 2.22-2.1-.93-3.88-1.86-5.74-2.52-3.47-1.22-5.31.73-6.53 3.63-.55 1.32-.28 2.36 1.3 2.53 1.37.14 2.84.86 4.18-.31.06-1.52-1.7-2.49-1.16-4.07 4.72.4 7.53 4.35 6.28 8.77-.23.82-1.77 2.13-.36 2.41 4.57.91 4.13 5 5.61 7.84.67 1.31 2.33 3.13 3 .49 1.26-5.3 4.69-6.16 9.21-5.84.86.06 1.86-.24 2-1.12.22-1.26-.87-1.5-1.88-1.75-2-.51-4-1.12-6.12-1.73.48-.65.61-1.05.83-1.1 2.46-.56 5.48-.89 4.51-4.45-.88-3.29-3.44-2.73-6.09-1.91s-4.11-.55-4.35-3.25M88.12 350.81l1 .6c1.09-.72 2.2-1.41 3.24-2.19s2.16-1 2.64.62c1.09 3.63 3.1 7.21 1.8 11.11-1.55 4.69-.09 8.41 2.89 11.93 1.93 2.28 4.08 4.51 4.37 8.45l-7.68-5.74c1.77 8.26 3.33 15.51 4.88 22.77-4.54-3.47-6-8.87-10.44-12.19a15.33 15.33 0 0 1 2.33 13.63c-.28 1 .4 2.24.76 3.34a48.13 48.13 0 0 0 6.78 13.79c3.81 5.25 7.48 10.61 10.08 16.61 1.66 3.84 3.53 7.52 7 10.17 1.51 1.17 1 1.85.16 3.72-1.6 3.73-2.87.36-4.09.46-1.46.12-3.13-.38-4.32.57-.78.63-.46 2.09.37 2.67 6.78 4.77 9.19 16.63 21.91 12.48a13.42 13.42 0 0 1-5.93 4.2c-2.76 1.24-3.35 2.85-1.73 5.48 12.1 19.61 26.59 37 45.36 50.66 1.05.77 2.64 2.15 3.36 1.83 4.9-2.14 7.51 1.45 11 3.55 2.69 1.63 6.9 4.74 9 1.51 1.18-1.81-4-3.77-6.83-5-16.48-7.08-29.17-18.53-38.64-33.92 8.79 7.38 18.11 12.79 30.13 13.16 6.68.21 6.52 1.4 6.33-5.73-.06-2.41-.89-3.66-3.14-4.31-3.18-.93-6.31-2.05-9.48-3a4.36 4.36 0 0 0-4.2.48c-5 3.47-11.72 2.08-16.48-3.78h11.9l.06-1-31.11-15c4.78-.62 9 1.48 13.55 1 3.33-.38 6.31-1.11 4.26-6.08 7.15 7.19 15.43 8.68 24.67 7.37a34.51 34.51 0 0 1 15.33 1.21c6.16 2 10.36-.78 15.11-4.18-3.49-2.61-7.3-3.35-10.73-4.88s-7.37-2.59-10.51-6c4-.6 7.63-.33 11.81-2.2l-24.79-11.1c.69 4.39 4.15 6.41 4.79 9.76-2.2.85-3.54-.47-5-1.15-5.84-2.81-11.61-5.76-17.41-8.66-1.13-.57-2.46-1.73-3.12.41-.78 2.52 3.5 10.25 6.07 11.1 4 1.32 6.21 3.94 6.55 8.78-4.91-2.08-9.31-4-13.72-5.81-2.14-.89-4.51-2.54-6.63-1.54-6.28 2.93-8.75-1.83-12.72-5.5 4.37-.77 7.87.79 11.44.63 1 0 2.24.14 2.41-1.11.08-.59-.69-1.4-1.24-2-1.71-1.77-4.93-2.69-5.12-5.21a157.31 157.31 0 0 1 0-17c0-1 .78-2.47 2.13-2.43a2.89 2.89 0 0 1 2.89 2.34 70.18 70.18 0 0 1 1.32 8.34 5.82 5.82 0 0 0 4.65 5.73c8.28 2.39 16.35 1.84 24.95-2.14a21 21 0 0 1-10.89-6.84c-5.05-5.52-7.94-5.64-14.06-1-.84.64-1.56 1.84-3.31.85.72-1.73.62-3.83 2.46-5.08 2.71-1.84 2.89-4.61 3.06-7.5.22-3.68-1.05-4.34-4.19-2.6a11.51 11.51 0 0 1-6.17 1.74c-1.75-.09-3.9.62-4.89-1.49a5.87 5.87 0 0 1 .7-6.14c2.45-3.45 5.47-3.38 8.68-1.27 1.24.81 2.26 1.95 3.43 2.88a2.45 2.45 0 0 0 3.9-.52c1.31-2-1-2-1.86-2.57-2.78-1.81-5.72-3.38-8.6-5-7-4.05-7.17-4.2-2-10.52 2.51-3.09 2.76-5-1.36-6.16-4-1.11-4-3.22-2.41-6.54a127.39 127.39 0 0 0 4.53-12.11c.91-2.59 0-5.06-2.57-5.42-5.1-.7-7.32-4.15-9.24-8.13A22.88 22.88 0 0 0 116 347.86a49 49 0 0 1-6.41-3.81c-.9-.6-2.53-1-2.18-2.36s2.13-.31 3.32-1.35c-4.69-2.17-3.35-7.52-5.8-11-1.22.89-.3 2.87-2 3.27-3.45-6.16-3.91-5.88-8.75-.24s-2.46 12.78-6.06 18.44m203.55 187.33c-5.27 5.65-6.05 12.66-7.15 19.54-.17 1.09-.71 2.26.48 3.21 2.95 2.36 8.87.72 10.35-2.94 1.24-3.05 1.82-6.46 4.76-8.55 4.37-3.1 4.36-6.54 1.08-10.5-.84-1-2.76-2.26-1.55-3.73 1.06-1.29 3.16-.95 4.69-.42a23.29 23.29 0 0 1 3.77 2.25c4.58 2.63 8.61 1.16 10.08-3.82 1.69-5.72 3.13-11.51 4.8-17.24.89-3.09.32-5.81-2.41-7.4-3.09-1.8-3.76 1.58-5.22 3.1-2.43 2.52-7.22 3.06-8.74.95-3.42-4.75-9.47-6-13.48-10-.72-.72-2.57-.57-3.85-.41-2.62.33-4.53 1.19-2.23 4.3 1.87 2.53 3.48 5.26 5.31 7.83 3.78 5.3 3.71 10.67.92 16.42-1.76 3.62-3.52 3.14-5.88.87.9-1.36 3.18.29 3.66-2.11-4.1-2.68-8.46-5.43-13.27-6.18-8.84-1.39-16.75-5.12-25-8.2s-13.89-8.16-17.55-16c-3.09-6.56-8.36-10.53-15.34-12.47-9.73-2.71-20.93 6.15-20.24 16.2a7.75 7.75 0 0 0 1.62 4.62c8.29 9.86 17.7 9.16 24.07-1.81.42-.72.83-1.44 1.19-2.19 2.3-4.69 1.3-6.46-3.84-6.46-3 0-5.5-.33-6.31-4 6.1-1 10.2 1.75 13.42 6.19 4.3 5.92 8.38 12 12.78 17.84 2.12 2.83 1.78 4.57-1.22 6.36-4.07 2.44-8 5.19-11.92 7.81 8.5-1.87 16.4-4.78 24.3-7.7 1.06-.39 1.65-1.79 3-1.48 6.71 1.53 13.41 3.09 20.49 4.73-2 2-4.67 1.29-6.11 3.54 3.65 2 7.12 4 10.58 5.9-8.91-1.75-17.48-4.21-26.06-6.64-4.7-1.33-9.08-1.23-12.54 3 1.23 1.63 3 1.79 4.44 2.49a113.93 113.93 0 0 0 27.9 9.67c8.55 1.73 11.77-1.71 16.22-6.57m154.55-415.62c.14 4.26 2.94 6.23 5.25 8.08 6 4.77 6.61 10.18 4.31 17.23-4.61 14.19-4.3 14.29-19 16.72-5.94 1-10.8-2.13-12.68-7.85-1.13-3.42-.63-7.21-2.47-10.47-7.13 3.93-8.49 9.27-4.07 15.59 7.58 10.83 20.95 12.81 32.51 4.82 1.41-1 2.86-3 4.45-.39 1.42 2.35-.72 3.3-2.19 4.17a48.72 48.72 0 0 1-5.87 2.69c-9.45 3.93-9.58 4.44-3.07 12.9a22.35 22.35 0 0 0 1.94 2.29c4.82 4.69 10.64 5.61 17.16 4.16L442.39 179c9.63-1.94 14.34.19 18.06 7.49 4.16 8.16 12.52 12.18 22.83 10.82-6.27-5.94-14.77-8.79-20.77-15.65 7.33-1.21 11.36-.15 14.8 3.93 2 2.41 3.68 5.13 5.59 7.65 4.85 6.4 12.08 5.84 18.62 7.32.16-.4.33-.8.49-1.19l-22.34-14.17H509c-5.09-2.94-9.24-5.31-13.35-7.75-1.53-.91-3.73-1.75-3.2-3.92.58-2.41 3-1.52 4.69-1.59a163.37 163.37 0 0 1 20.59.69c-5-4.2-11.08-6.84-15-12 2.36-2.43 5.87-.67 8.68-2.87l-26.83-16.59-.63.59 5.1 9.78a41.11 41.11 0 0 1-10.31-5.74c-3.18-2.27-6.35-2.61-9.74-.54-2.31 1.42-3.11 2.55-.25 4.49 5.11 3.47 8.92 8.1 11.69 15.17-4.34-1.94-7.64-3.35-10.88-4.88-1.78-.84-2.88-2.21-2.52-4.38.53-3.14-.63-4.84-4-4.6-1.87.14-1.54-1-1.44-2.26.93-12.8-3.38-20.35-15.38-26.28M231 511.14c-1.48 1.72-2.51 3-3.64 4.23-7.56 8-17.48 7.75-24.71-.53a19.83 19.83 0 0 1-5.24-11.11c-.42-4.8-2.07-5.47-5.68-2.83a3.62 3.62 0 0 1-.1-3.23c3.25-10 11.63-17 21.33-17.71 11.59-.85 20 3.9 24.93 14.39 4.57 9.75 11.11 17.19 22 20.06.77-2.87-1-4.43-3-5.62a30.82 30.82 0 0 0-5.89-2.64c-4.81-1.61-5.9-5.2-5.91-9.78s2.34-6.57 6.27-7.77c1-.3 2.82-.14 2.78-1.4s-1.13-2.32-2-3.32c-1.31-1.55-2 .13-2.73.78-2.32 2-5 1.63-7.57 1-1.11-.24-2.37-1.28-3.25-.26-2.24 2.62-3.19.45-4.55-.9a47 47 0 0 0-4.13-3.59c-14.21-11.22-39.61 3.3-42.85 18.13-1.23 5.63-.85 11.12 0 17.17-8-4-15.36-8.23-24.1-8.81 4.72 3.91 8.17 10.18 14.55 10.64 6.87.5 12 3.26 16.75 7.67 1.85 1.72 3.69 3.69 6.59 2.85.46-1.91-2.24-2.74-.88-4.94a122.82 122.82 0 0 0 27.71 14.8c15.56 6.19 31.08 12.48 46.63 18.71a15.24 15.24 0 0 0 4.23 1.4 3.49 3.49 0 0 0 3.46-2.41c.59-1.49-.39-2.12-1.63-2.47-13.22-3.8-24-13.3-37.6-16.18-5.68-1.2-11.34-2.47-17-3.62-2.51-.51-3.8-1.51-1.73-3.85 3.44-3.87 3.22-10.61 9.67-12.15 1-.25.51-1.44.13-2.13-.79-1.38-1.7-2.72-2.84-4.58m180.67-378.29c6.07.62 12.14 1.53 18.24 1.76 3.85.14 3.17 1.68 1.2 4.31 3.76-1.31 6.76-.13 9.6-.36 4.09-.34 5-.47 6.46 3 1.87 4.38 1 8.19-2.67 11.19s-7.84 4.15-12.32.69c4.06-2.88 9.36-3.15 13.49-6.94a43 43 0 0 0-4.13-1.22c-4.09-.73-8.21-1.3-12.28-2.11-1.63-.32-2.15.55-2.51 1.68-1.23 3.87-1 7.6 1.79 10.76a8.6 8.6 0 0 0 9.45 2.7c3.5-1 6.11-3.29 9-5.21 5.73-3.79 7-8.89 3.7-15-3.63-6.76-10.78-10.3-20-8.91-10.46 1.58-19.39-1.57-27.45-7.72-5-3.83-9.6-8.23-14.38-12.37a101.07 101.07 0 0 0-17.61-12.2c-1-.53-1.94-1.5-3.12-.36s0 2.17.19 3.21a5.3 5.3 0 0 0 2.42 3.07c11.19 8.35 22.56 16.44 33.07 25.69 3 2.62 4.52 5.15 4 8.93a90.72 90.72 0 0 0-.35 15.46c.06 1.39-1.13 3.86 1.44 4 2.21.09 4.12-2.06 3.68-3.94-1.47-6.56.11-13.15-.91-20.11m-266.19 69.58c-1.59 1.08-2.39 1.64-3.21 2.17-3.36 2.13-5.55 6.5-9.59 6.89-5.39.53-6.71 3.52-7.68 8-1.83 8.44-5 16-13.38 20.52-5.43 2.92-6.4 7.55-4.87 13.83 1.41 5.78 4 11.34 3.24 17.51-.11.88-.14 1.72.8 2.11 1.29.53 1.77-.54 2.27-1.34a9.91 9.91 0 0 0 1.3-2.68c2-8.38 3.68-16.91 10.86-22.87.6-.5 1.65-1.56.32-2.41-3.65-2.34-.62-3.88.65-5.53 1-1.35 3.39-1.28 4-3.45-4.1-.68-5.94-3-4.94-7 1-4.24 11.2-7.72 14.55-5 .79.64.18 3.15 2.41 1.81 1.86-1.11 3.2-3.1 2.67-5-1.61-5.69.33-11.18.6-17.56M407.85 578c-2.94.54-5.23 3.48-7.81 1.56-2.18-1.63-4.3-1.17-6.09-.41-12.27 5.25-26.42 2.89-38.32 9.58a6.3 6.3 0 0 1-2.46.26c-6.34.48-7.56 2.11-6.38 9.1 7.65-4.18 16-4.31 24.28-4.72 8.47-.4 17 0 25.4-1.44 13.18-2.28 11.91 1.58 11.38-13.93M139.24 124.4c-5 2.3-10.22 4.24-14.23 8a348.23 348.23 0 0 0-28 29.84c-4.52 5.41-3.78 8.07 2.71 10.84 4.8 2 9.43 4.08 11.43 9.59.91 2.49 3 2.86 5.28 1.29 3.42-2.38 6.86-4.71 10.22-7.16 1.45-1.05 3.51-2.41 2.15-4.34-1.06-1.51-3-.18-4.53.42-3.06 1.21-5.66 3.66-9.69 3.94 3.37-6.69 0-10.87-4.13-14.92-4.86-4.82-4.8-7.47.39-11.93 4.42-3.8 9.07-7.32 13.54-11.06 5.28-4.43 11.17-8.29 14.86-14.51M97.3 302.77c10.43 2.52 2.4 9.92 4.12 15.47 5.51-4.74 11.56-7.42 17.76-10.09 4.48-1.93 9.95-5.86 11-9.94.84-3.12-4.61-7.83-7.07-11.95-1.31-2.2-2.27-2.32-4-.39-3 3.45-6.29 6.72-9.83 10.45l-4.11-8.87Zm414.87 15.09c-9.22 7.7-13.48 26.21-8.77 35.73 2.94-2.88 3.76-7.28 7.23-10.06 1 2.29 1.88 4.23 2.58 6.24.85 2.43 1.79 2.76 4.24 1.4 5-2.76 7.69-5.86 5.78-12.08-1.37-4.49-1.84-8.9-7.14-10.93-4.09-1.56-5.37-5.16-3.92-10.3M350.1 109c5.55-1.27 9.45 1.39 13.32 4.46 11 8.76 23.23 15.75 35.51 23.2.49-8.17-3.7-14-12-17.54-4.43-1.87-9-3.5-13.26-5.68-10.64-5.41-11.58-3.06-8.6-16.57.26-1.18 1.09-2.69-.25-3.74-1.53-1.21-2.78.12-4.07.73-6.21 2.95-7.35 9.51-10.65 15.14m-76.85 452.64c-4.25-4.76-43.47-21-50.78-21.25.55 4.38 4.08 5.63 7.39 7.19 1.82.86 4.78 1.07 4.38 3.86-.5 3.52 1.65 4.74 4 6.07a43.92 43.92 0 0 1 7.8 5.33 13.1 13.1 0 0 0 9.66 3.16c2.22-.09 4.65-.11 5.91-2s-1.87-2.78-1.9-4.6c4.47.1 8.61 2.75 13.54 2.24m204.1-126c.33-.18.78-.39 1.19-.66A82.49 82.49 0 0 0 502 412.16c.42-.62 1.18-1.23.53-2.2a2.09 2.09 0 0 0-2.62-.87c-8.86 3.25-18.09 5.54-26.52 9.91-1.86 1-3.32 2.69-2.45 4.9 1.42 3.59 2.5 7.38 4.86 10.54.4.5.53 1.29 1.55 1.16Zm85.84-170.28c.9 6.47 2 14 3 21.59.39 3.08 1.89 2.24 3.23 1 3-2.7 5.74-5.55 8.57-8.37 7.11-7.08 5.23-15.17-4.25-18.31-1.57-.52-3.17-1-4.77-1.38-4.62-1.22-5.82-.31-5.78 5.43ZM302 71.16c5.3 2.75 9.63 1.94 13.79-.92 2-1.4 4.22-2.64 6.29-4 4.87-3.29 5-3.79 0-7.11-3-2-3.26-3.46-1.08-6.6 3.69-5.33 7.81-8.37 14.58-6.76 2.11.5 4.44.08 6.66.08-11.51-2.49-23-4.76-35.48-1.93 3.42 4.09 7.44 7.48 4.66 13-.09.18.22.61.41.86 3.47 4.6.31 7.43-2.9 9.91-1.88 1.4-4.28 2.16-6.93 3.47M508.5 387c-5.62.89-7.75-.39-5.1-5.31 1.28-2.39.1-3.25-2.1-2.41-4.91 1.88-9.31 4.48-11.29 9.81-.65 1.75-1.41 3.68-.16 5.23 1.5 1.86 2.93-.37 4.41-.66.9-.18 1.86-1.31 2.63-.3a2.7 2.7 0 0 1-.3 3.65 14.13 14.13 0 0 1-3.77 2.32c-2.25 1-4.63 1.83-6.87 2.88a2.55 2.55 0 0 0-1.66 2.8c.18 1.11 1 1.59 2 2 4.58 1.87 13.93-1.5 16.06-6 2.04-4.35 3.85-8.79 6.15-14.01M335.79 138.73h15.11c1.38 0 3-.41 2.22-2.32-2.24-5.82-.62-11.39.71-17 .61-2.59 0-5.68-2.65-6.2-5.36-1-6.65-4.21-6-9.53-3.42 1.52-6.5 2.41-9.18 4.55 4.93 2.66 11.67 13 9.59 15.45-3.95 4.7-1.87 13.25-9.8 15.05m-25.64 449.58c1.34 2.61 4.27 2 4.84 4.61-3.62 1.88-7.51.75-11.24 1-1.71.13-3.72.35-4.14 2s1.67 2.37 2.95 2.8c4.53 1.54 9 3.4 13.48 4.92 7.8 2.62 14.65-3.45 14.15-11.69a2.59 2.59 0 0 0-2.79-2.77c-5.57-.34-11.14-.57-17.25-.87m91.76-434.71c-.23-4.65-1.1-7.77-4.16-9.73q-19.25-12.36-38.57-24.58c-.81-.51-1.71-1.25-2.65-.27s-.3 1.82.1 2.73a12.08 12.08 0 0 0 5 5.36c5.6 3.54 11.15 7.17 16.69 10.82 7.57 5 15.11 10.07 23.59 15.67m-288.4 325.31a33.48 33.48 0 0 1 3.37 0c4.44.49 5.46-1.24 3.26-5-1.93-3.29-4-6.5-5.91-9.8-2.49-4.32-6.22-3.95-10-2.46-5.71 2.29-7 7.93-3.32 12.66 3.43 4.47 7.99 5 12.6 4.6M79 464.28c-3.4-10.72-7.89-20-12.22-29.4-1.27-2.74-3.91-1.8-6.12-.85-2.57 1.1-2.74 3.32-1.93 5.42 1.23 3.23 3.12 6.21 4.32 9.45 2.68 7.36 8.15 11.75 15.95 15.38M429.6 56.09c-8.22-.05-9.71 1.06-10.81 8.2-.68 4.42-1.1 8.88-1.56 13.33-1 9.91-1 9.91 9.07 11.89a3.4 3.4 0 0 0 .84-.17c-.45-3.5 1.34-7.39-1-10.57-3.06-4.24-2.5-8.39-.83-12.71 1.29-3.23 2.75-6.37 4.29-9.97M157.3 476.52c5.94 11.55 16.56 16.43 27.65 13.16 2.31-.68 4.64-2.26 5-4.41s-2-3.55-4-4.44c-3.27-1.43-6.45-3.15-10.58-4 1.42 3.1 2.59 5.66 4.28 9.38-4.6-2-8-3.55-11.45-5s-6.9-2.98-10.9-4.69M137.4 307c-1.87 3.1-3.7 6-5.39 9-1.2 2.12-2.36 2.61-4.74 1.3-4.41-2.43-7-.71-7.28 4.46-.12 2.34.6 4.57 1.06 6.85.63 3.16 1.91 3.17 3.86 1.25 3.79-3.72 7.42-7.61 11.26-11.28 5.06-4.89 5.18-5.26 1.23-11.58m302.33-119.54c-4-2.63-7-4.59-9.94-6.67-.86-.61-2.93-1.49-.61-2.67 4.1-2.1 1.24-3-.57-4.09-2.14-1.26-4.33-2.43-6.55-3.54-1-.5-2-1.73-3.1-1s-.71 2.43-.64 3.68c.59 9.89 8.68 15.7 21.41 14.29m-308.35 85.3c-6 9.08-1.15 20.76 9.71 24.1-.85-8.86-4.87-16.39-9.71-24.1m95.94 200.59c-.24 0 .92.66 1.48-.55.48-1-.38-1.89-.9-2.69a3.62 3.62 0 0 0-3.33-1.9c-7.14 1.16-13.29-2-19.7-4.17-1.06-.36-2.48-1.85-3.44 0-.85 1.69.94 2.19 1.8 3.08 6.39 6.7 14.9 5.58 24.09 6.23M390.25 151c-.32-.21-.88-.55-1.43-.91q-16.27-10.52-32.57-21.09c-.6-.38-1.41-1.22-2.15-.21-1.16 1.56.48 2.09 1.26 2.63 7.93 5.44 15.88 10.86 23.9 16.16 2.62 1.73 5.48 3.1 8.22 4.64 1.08.64 2.15 1.22 2.77-1.22m20.86 366c.08-1.83-4.48-10.58-5.37-10.64s-6.73 8.15-6.5 9.64a6.46 6.46 0 0 0 6 5.67c3.39.38 4.76-2.26 5.87-4.67m35.14-322.12c-.78.18-2.22.28-2.25.55a10 10 0 0 0 1.86 7.4c1.73 2.25 2.51 6 5.56 6.29s6-7.45 4-9.66a15.22 15.22 0 0 0-9.17-4.59Zm13.87-69.2c2.55 11.21 10.34 15.78 21.28 12.73ZM245.79 54.89l-.57-.91c-5 1.08-10 2.08-14.91 3.28-1.42.34-3.11 1.28-2.84 3a11.5 11.5 0 0 0 2.19 5.38c1.06 1.27 2.8.24 4-.7 4.05-3.33 8.08-6.7 12.13-10.05m236.26 36.53c-4.07-1.07-8.53-.54-10.46-5.46-.69-1.77-3.27-.92-5-.75-1 .1-1 1-1 1.9 0 3.73 4.64 8.54 9.53 9.45 3.88.73 5.36-2.11 6.93-5.14m63 128.85a27.58 27.58 0 0 0 3.51 10c1.89 3 4.68 1.25 7.17.63 1.3-.33 1.55-1.06.85-2.15-2.33-3.6-4.62-7.22-7-10.76a2.87 2.87 0 0 0-3.55-1c-1.31.56-.86 2.01-1.03 3.28ZM125 340l.76.68c1.54-1.47 3.14-2.89 4.62-4.42 1.25-1.29 2.4-1.92 4.34-1.17 5.14 2 5.21 1.89 5.28-3.74 0-1.44.79-3.3-.56-4.23-1.68-1.17-2.56.85-3.63 1.71s-2.33 1.58-3.64 1.14c-3.74-1.24-5 .59-5.47 3.89A53.26 53.26 0 0 1 125 340m351.8-212.86c1.16-5-.92-7.2-5-8-3.23-.65-5.3-2.32-5.91-5.8-.34-2-1-4.14-3.43-5.15-.37 2-.72 3.8-1 5.59-.31 2-.5 3.8 1.81 5.09 4.45 2.51 8.73 5.32 13.53 8.27m24.2 60.42c3.89 11.82 5.29 13.76 9.94 14.17-1.13-2.3-3.67-3.74-4.25-6.57 3-.2 5.62-.32 8.25-.57.94-.09 2.11-.16 2.33-1.4s-.83-1.74-1.76-2c-4.62-1.19-9.22-2.3-14.51-3.63m-378 69.83c.7 1.69.46 4.38 2.55 4.81s2-2.26 2.47-3.63c1.58-4.14 2.89-8.38 4.28-12.59.3-.89 1.05-1.91-.09-2.65s-1.88.06-2.57.79c-3.55 3.71-5.1 8.38-6.64 13.27m334.81 228.36c3.23-3.43 4-7.5 7.79-8.81 1.07 1 .74 2.88 2.89 3.91 1.53-1.75 3.27-3.53 4.78-5.51 2.08-2.72-.61-4.38-2-5.74-1.77-1.74-2.44.62-3 1.78-1.17 2.57-3.51 3.38-5.82 4.29-4.1 1.65-5.45 4.65-4.64 10.08m-147.06 84.11c-6.06-6.61-16.34-6.44-26.08.38 9.33.76 17.7-3.45 26.08-.38m49.77-76.41 14.81-3.63c1.05-.26 1.92-.77 1.71-2s-1.29-1.22-2.3-1.12c-5.09.49-10.18.91-15.26 1.48-1.14.13-3.27-.13-3 1.62s1.45 3.76 4.04 3.65m184.1-264.69a3.71 3.71 0 0 0-1.65 4.36q1.63 8.24 3.06 16.52c.33 2 .79 4 3.2 3.3s1.42-2.89.94-4.58c-1.77-6.36-3.58-12.64-5.55-19.6M293 523.82c1.72-8.43-7.64-11.82-17.31-7.37Zm-188.7-40.69c-3.69-2.44-7-4.59-10.22-6.76-.7-.46-1.45-1-2.25-.47-1 .65-.8 1.81-.56 2.7.78 3 1 6.57 4.32 7.9s5.71-1.33 8.74-3.37Zm45.8-135.66c0-6.62.05-13.24 0-19.85 0-1 1-3-1.45-2.81a2.4 2.4 0 0 0-2.49 2.53c-.28 6.91-.3 13.79 3.94 20.13m286.14 110.92c-2.8-2.68-5.89-2.9-9.07-2.55-5.16.57-5.28 1.3-2.7 5.71 2.27 3.88 4.26 4.38 7.23.86a41 41 0 0 1 4.54-4.02M65.38 329.32c1.59-.72 4.94.52 4.65-2.72-.32-3.53-3.5-4.64-6.6-4.49-2.6.12-7.15.27-6.76 2.91.51 3.55 4.97 4.1 8.71 4.3m377.45 165.93c-5 3.34-5.3 7.59-2.7 13.23 2.69-4.47 9.35-3.61 11.75-10.27l-7.44 3.37c-1.14-2.07.22-4.34-1.61-6.33M118.3 266.69c-2.06 6-2.83 11.94-4.33 19.07 3-2.75 5.08-4.61 7.08-6.54a17.85 17.85 0 0 0 1.76-2.27c-4.32-1.95-1.42-7.09-4.51-10.26M465 415c6.27.45 9.88-2.11 11.2-7.12.34-1.31.83-3-.31-3.75-1.37-.94-2.87 0-3.82 1.25-2.29 2.96-4.47 6.02-7.07 9.62m-207 48.8-16.47 4.6c5.1 5.37 9.61 4.2 16.47-4.63ZM136.84 272.26c1.91-3.73 3.17-6.8 2.93-10.11-.12-1.56-.31-4.53-2.45-4.09s-4.8 2.19-3.86 5.39c.81 2.76 2.05 5.39 3.38 8.81m226.08 249.37c3.31 2.25 6.06 4.23 9.7 4.31 2.58.06 3.52-1.55 3.48-3.83s-1.75-2.32-3.53-2.25a32.71 32.71 0 0 0-9.65 1.77M85.13 292.76c-1.81 1.53-.95 3.44-.91 5.05.11 4.36 4 4.63 6.87 5.93.92.41 2.34.48 2.53-.63.44-2.69-2.3-3.66-3.53-5.46a29.19 29.19 0 0 0-3.34-3.65 16.42 16.42 0 0 0-1.62-1.24m111 164.87c1.63.25 1.66-.68 1.77-1.45.41-2.86-4.39-9-7.26-9.06-1.63 0-4 1.42-2.92 2.77 2.36 3.03 5.67 5.36 8.36 7.74Zm-48.29-261.88c3.5-6.41 6.48-11.87 10-18.37-7.35 3.85-10.84 10.33-10 18.37m5.28 23.25c-2.53-.06-4 1.25-3.88 3.89.14 2.32 1.29 5.94 2.87 5.72 3.29-.47 2.87-4.56 3.86-7.14.81-2.12-1.19-2.31-2.85-2.47m260.05 252.58c-.07-1.44-.91-1.33-2-1-3 .83-6.07 1.56-9.11 2.35-.74.19-1.82-.1-2 .95s.72 1.81 1.47 2.38c1.47 1.16 11.28-2.76 11.64-4.68m-227-38.24c-.13 2.6.65 5 2.93 5.21s3.74-2.16 3.61-4.45a5.07 5.07 0 0 0-4.56-4.55c-2.66-.29-1.44 2.59-1.96 3.79Zm374-176.58c4.27-6.61 3.91-10.72-.83-14.15a64.63 64.63 0 0 0 .81 14.15Zm-453.3-20.26c-1.35-4.2-1.94-7.56-4.31-10.69-1.18 4.45-2.26 8.43-3.28 12.43a3.08 3.08 0 0 0 .18 1.21c3.15.43 1.54-7.33 7.41-2.95M492.4 363.74c-1.63 2.92-3.32 5.8-4.88 8.75-.47.91-1.49 2.06-.13 3s2.54-.05 3.33-1.08c2.28-2.99 2.4-6.6 1.68-10.67M87 227.8c-1.65 1.06-3.66 2.27-3.36 3.9.33 1.79 2.32 3.22 4.35 3.46a3 3 0 0 0 3.2-3c-.07-2.32-2.57-2.99-4.19-4.36M119.6 337c-2-.22-3.17.76-3.13 2.11.07 2.27 1.91 3.33 3.93 3.66 1.44.24 3.75-.53 3.59-1.55-.37-2.29-2.55-3.53-4.39-4.22m359.83 116.54c7.17-1.83 7.17-1.83 7.71-10Zm-312.29-21.1c-1.72-2.2-2.59-5-5.59-6a2.85 2.85 0 0 0-1.22 1.85c.34 3.42 3.15 4 5.81 4.73.11.04.27-.14 1-.58m246.7 85.13c3.62-1.09 5.25-3.28 7.32-4.82.87-.64 1.34-1.47.33-2.43a1.36 1.36 0 0 0-2.14.21c-1.74 2.03-4.16 3.54-5.51 7.04M171.16 167.7c5.87.62 7.53-2.44 7.49-7.47-2.98 2.03-5.13 4.61-7.49 7.47m114.16-66.19c-.09 1.29-.33 3 1.05 3 1.92-.11 2.79-2.19 3.51-3.75.86-1.87-1.26-2.29-2.21-2.45-2.67-.47-1.42 2.28-2.35 3.2m-49.53 361.74a4.71 4.71 0 0 0-3.87.4c-1.12.56-2.84-.22-3.39 1.47a1.44 1.44 0 0 0 .55 1.22c1.4 1 2.83.67 4.16-.21 1.08-.73 2.28-1.4 2.55-2.88m73.79-325c-4.73-3.59-5.42-3.37-6.81 1.53 2.23.37 4.13-.86 6.81-1.49Z" style="fill:#44ebb1"/></g></g></svg>