<svg xmlns="http://www.w3.org/2000/svg" viewBox="0 0 217.03 204.29"><g id="图层_2" data-name="图层 2"><g id="图层_1-2" data-name="图层 1"><path d="M104.27,160.38c-1.76-1.24-1-2.93-.86-4.55,1.33-12.55,2.55-25.11,4-37.64.31-2.58-.73-2.72-2.65-2.69-4.49.06-9-.06-13.47,0-4.09.08-5.85-1.13-4.58-5.66,2.42-8.64,4.31-17.42,6.63-26.08.72-2.67.26-3.51-2.6-3.46-6.82.12-13.64,0-20.46-.08-1.16,0-2.53,0-3-1.24-.19-.54.41-1.58.93-2.11Q90.08,54.68,112,32.53c-.25,6.68-1.07,13.3-1.88,19.94-.76,6.29-1.24,12.64-2.13,18.93-.42,3,.15,4.83,4.06,4.51,5.13-.43,10.34.19,15.47-.2,4.17-.32,4.11,1.36,3.2,4.45-2.79,9.51-5.31,19.08-8.19,28.56-.9,3-.3,3.75,2.75,3.71,8.15-.11,16.31,0,24.47.07.15,2.39-2,3.3-3.15,4.81-3.24,4.11-8.12,6.82-10.3,11.87C126.72,140.73,114.58,149.62,104.27,160.38Z" style="fill:#fcd62d"/><path d="M104.27,160.38c10.31-10.76,22.45-19.65,32-31.2,6.75-4.58,11.74-11,17.33-17l-3.88.3c-8.16,0-16.32-.18-24.47-.07-3,0-3.65-.73-2.75-3.71,2.88-9.48,5.4-19,8.19-28.56.91-3.09,1-4.77-3.2-4.45-5.13.39-10.34-.23-15.47.2-3.91.32-4.48-1.55-4.06-4.51.89-6.29,1.37-12.64,2.13-18.93.81-6.64,1.63-13.26,1.88-19.94,2.22-3.68,1.66-7.77,2.07-12-3.15,2.91-6,5.55-8.9,8.24-1.45,1.36-3,2.45-4.72.69-1.48-1.49-.82-3.14.38-4.44,3.27-3.54,6.5-7.14,10-10.43,2.12-2,4.91-3.1,7.78-1.51,2.57,1.42,1.81,4,1.56,6.28-1.68,15.54-3.28,31.1-5.08,46.63-.36,3.09,0,4.58,3.62,4.25a108.84,108.84,0,0,1,11-.06c6.4.11,8.82,3.42,7.1,9.75-2.09,7.7-4.15,15.42-6.43,23.06-.8,2.69-.31,3.45,2.54,3.39,7.66-.17,15.32,0,23-.06,2.43,0,4.85.25,5.91,2.79s-.25,4.52-2,6.22l-59,56.78a7.69,7.69,0,0,1-9.2,1.51c-3.44-1.61-3.11-4.6-2.75-7.73,1.39-12.22,2.53-24.48,4-36.69.48-3.87.06-6-4.57-5.39a32.77,32.77,0,0,1-7.47-.1c-6.26-.64-8.65-4.14-7.18-10.3q3-12.61,6-25.2a3.48,3.48,0,0,0-.16-.83c-7.38,0-14.84-.11-22.3,0-3.51.08-6.37-.78-7.59-4.25-.92-2.61,1.27-4.34,2.75-6,8.1-8.83,16.31-17.57,24.51-26.31,1.43-1.52,2.9-3.86,5.3-1.61,2.2,2.06.57,3.89-1,5.53L59.28,78.17c-.78.83-1.54,1.67-3.09,3.37,7.26,0,13.62,0,20,0,1.83,0,3.66.13,5.49.09,4.32-.1,5.39,1.77,4.29,5.9-2.25,8.49-3.84,17.17-6.31,25.6-1.35,4.59.42,5.17,4.15,5.07,4.32-.13,8.66.08,13-.08,2.52-.09,2.92.66,2.63,3.15-1.72,14.69-3.2,29.41-4.72,44.13-.11,1-1.16,2.34.53,3,1.17.45,1.82-.61,2.48-1.26C99.94,164.92,102.09,162.64,104.27,160.38Z" style="fill:#0b0b0a"/><path d="M95.84,198.25h67c1.17,0,2.33,0,3.5,0,1.87-.05,3.43.53,3.61,2.57.21,2.36-1.51,3.19-3.51,3.31s-4,0-6,0l-132.4.2a19.62,19.62,0,0,1-4-.36,2.73,2.73,0,0,1-2.37-3.25,2.54,2.54,0,0,1,2.7-2.4c1.17,0,2.33,0,3.5,0Z" style="fill:#0b0b0a"/><path d="M187.37,198.32c2.5,0,5,0,7.49,0a2.85,2.85,0,1,1,.21,5.69c-5.32.13-10.64.16-16,0a2.86,2.86,0,0,1-3-2.8c-.06-2.09,1.4-2.89,3.26-2.94C182.05,198.26,184.71,198.31,187.37,198.32Z" style="fill:#0b0b0a"/><path d="M82.69,0c1.17.1,1.55,1,1.84,2s.27,2.37,1.9,2.48c1.2.08,2.44.35,2.57,1.83.17,1.89-2.11,1.55-2.52,2.25-2.65,4.57-4.82,5-7.48,0-.39-.71-2.83-.09-2.88-1.94s1.44-2,2.81-2.17,1.93-1.07,2-2.39A2,2,0,0,1,82.69,0Z" style="fill:#fcd62d"/><path d="M17.57,80.48a7.08,7.08,0,1,1-.18-14.15,7.08,7.08,0,1,1,.18,14.15Zm-.35-2c3.46-.12,5.28-2.11,5.32-5,.05-3.12-1.78-5.31-5.26-5.21-3.1.08-5,1.92-5.09,4.91C12.11,76.54,14.17,78.3,17.22,78.53Z" style="fill:#fcd62d"/><path d="M6.85,204.16a28.35,28.35,0,0,1-3.45,0c-1.92-.25-3.6-1-3.38-3.36.19-2.11,1.74-2.52,3.56-2.49s3.94.05,5.91,0,4.28,0,4.41,2.67-2,3.05-4.09,3.23c-1,.09-2,0-3,0Z" style="fill:#0b0b0a"/><path d="M180.43,103.31a1.54,1.54,0,0,1-1.52-1.66c.51-3.86-4.42-2.19-4.74-4.55-.42-3.09,5.1-.8,4.68-4.51-.12-1,.28-2.07,1.56-2.14s1.72,1,1.65,2c-.24,3.5,5.12,1.71,4.66,4.69-.35,2.21-5,1-4.74,4.63C182.06,102.67,181.39,103.26,180.43,103.31Z" style="fill:#fcd62d"/><path d="M210.81,204a21,21,0,0,1-3,0c-1.85-.26-3.23-1.28-2.86-3.29.55-3,3.08-2.61,5.16-2.41,2.38.23,5.64-1.46,6.75,2.24.59,2-.74,3.13-2.62,3.43a22.16,22.16,0,0,1-3.46,0Z" style="fill:#0b0b0a"/><path d="M90.69,43c-1.81-.31-3-1.22-2.73-3a4.91,4.91,0,0,1,4.53-4.48,2.38,2.38,0,0,1,2.64,2.86C94.75,40.9,93,42.33,90.69,43Z" style="fill:#0b0b0a"/><path d="M189.71,66.51a2.4,2.4,0,0,1-2.26,2.63,2.48,2.48,0,0,1-3-2.47A2.31,2.31,0,0,1,186.7,64C188.51,63.79,189.34,64.86,189.71,66.51Z" style="fill:#fcd62d"/><path d="M38.89,25.55c-.42,1.25.74,3.63-1.49,3.46-1.82-.14-1.21-2.41-1.26-3.82s-.32-3.3,1.33-3.25C39.66,22,38.5,24.25,38.89,25.55Z" style="fill:#fcd62d"/><path d="M38.89,7.13c-.43,1.24.83,3.47-1.41,3.5-1.6,0-1.39-1.93-1.33-3.19s-.63-3.58,1.26-3.71C39.65,3.58,38.46,5.92,38.89,7.13Z" style="fill:#fcd62d"/><path d="M28,17.49c-1.14-.34-3.28.64-3.11-1.31s2.33-1.35,3.73-1.35c1.22,0,3.25-.34,3.07,1.41C31.45,18.3,29.25,17.09,28,17.49Z" style="fill:#fcd62d"/><path d="M46.81,17.48c-1.18-.36-3.27.69-3.4-1-.16-2,2-1.67,3.36-1.65s3.56-.63,3.4,1.6C50,18.19,48,17.14,46.81,17.48Z" style="fill:#fcd62d"/><path d="M28.61,26c-.3-.85-.43-1-.39-1.15a8.56,8.56,0,0,1,4.55-4.88c.16-.08,1,.61,1,.79C33,23.28,31.12,24.66,28.61,26Z" style="fill:#fcd62d"/><path d="M29.25,6.86a10,10,0,0,1,4.42,4.27.86.86,0,0,1-.92,1.27c-2.19-.57-3.48-2.32-4.54-4.16C27.9,7.69,28.25,7,29.25,6.86Z" style="fill:#fcd62d"/><path d="M46.91,8a9.94,9.94,0,0,1-4.28,4.33c-.52.3-1.55,0-1.34-.84.57-2.2,2.37-3.46,4.19-4.56C46.07,6.61,46.72,7.06,46.91,8Z" style="fill:#fcd62d"/><path d="M47.07,25.08c-.89.27-1.06.38-1.19.35a7.33,7.33,0,0,1-4.7-4.54c-.08-.19.63-1,.78-.94C44.45,20.76,45.74,22.74,47.07,25.08Z" style="fill:#fcd62d"/></g></g></svg>