<svg xmlns="http://www.w3.org/2000/svg" viewBox="0 0 198.09 36.47"><g id="图层_2" data-name="图层 2"><g id="图层_1-2" data-name="图层 1"><path d="M188.05,16.45c-1.09,2.88-2.14,5.62-3.18,8.36-.65,1.71-1.33,3.41-1.92,5.14a1.66,1.66,0,0,1-1.82,1.33c-3.38-.09-2.75.43-4-2.73-1.4-3.64-2.76-7.3-4.16-10.94-.13-.36-.15-.79-.61-1.08l-3.85,10.31c-.42,1.12-.84,2.23-1.24,3.36a1.43,1.43,0,0,1-1.52,1.07c-3.84-.06-3.07.46-4.33-2.86-1.37-3.62-2.67-7.25-4-10.87-.12-.32-.13-.72-.58-1q-1.73,4.51-3.44,9c-.59,1.57-1.22,3.12-1.78,4.69a1.41,1.41,0,0,1-1.51,1.07c-3.71-.05-3,.4-4.17-2.75-1.36-3.61-2.7-7.23-4.05-10.85-.14-.37-.3-.73-.55-1.34l-2.78,7.41c-.79,2.12-1.62,4.24-2.37,6.38a1.45,1.45,0,0,1-1.57,1.15c-.68,0-1.36,0-2,0-1.24,0-1.43-.29-1-1.45q2.31-6.09,4.64-12.17c.75-2,1.55-3.93,2.25-5.92a1.7,1.7,0,0,1,1.87-1.29c4,.06,3.18-.45,4.53,3.11s2.61,7,3.91,10.53c.08.21.19.42.39.88,1-2.61,1.88-5,2.77-7.38.74-2,1.48-4,2.19-5.94a1.6,1.6,0,0,1,1.7-1.2c4.14.06,3.27-.44,4.63,3.14,1.28,3.35,2.49,6.72,3.75,10.08a2,2,0,0,0,.61,1.13c1-2.67,2-5.29,2.94-7.92.65-1.75,1.31-3.51,1.93-5.27a1.53,1.53,0,0,1,1.61-1.15c4.29,0,3.35-.41,4.68,3.06,1.45,3.75,2.85,7.51,4.37,11.53,1.06-2.87,2-5.52,3-8.16.64-1.76,1.3-3.51,1.91-5.28a1.52,1.52,0,0,1,1.6-1.15c4.29,0,3.38-.5,4.78,3.11,2.08,5.35,4.1,10.72,6.14,16.08.52,1.38.35,1.63-1.11,1.63-3.7,0-2.89.36-4.11-2.81-1.43-3.72-2.79-7.47-4.18-11.2C188.34,17,188.23,16.82,188.05,16.45Z" style="fill:#3b5ba8"/><path d="M0,15.88A15.65,15.65,0,0,1,14.3.07a15.57,15.57,0,0,1,17,12.71c1.18,6.5-.82,12-6.16,16a1.08,1.08,0,0,0-.44,1.56c.63,1.5,1.19,3,1.74,4.57.4,1.1.13,1.51-1,1.49-3.85-.05-3.06.58-4.42-2.89-.84-2.13-.84-2.14-3.33-1.85A15.63,15.63,0,0,1,0,15.88Zm22.69,9.23a11.8,11.8,0,0,0,4-8.58C27.17,8.26,20,2.39,12.38,4.88c-4.74,1.55-7.06,5.18-7.46,10-.67,8.05,5.48,13.67,12.69,12.52.81-.13.89-.37.61-1.06-.76-1.89-1.48-3.78-2.19-5.69-.4-1.09-.14-1.44,1-1.48.68,0,1.36,0,2,0a1.59,1.59,0,0,1,1.77,1.24C21.42,21.92,22,23.42,22.69,25.11Z" style="fill:#3b5ba8"/><path d="M74.57,12.81c0-.38,0-.61.06-.85a2,2,0,0,1,.09-.7c.8-1.49,2.2-.64,3.33-.78.85-.11,1.14.52,1.14,1.32q0,9,0,18.07c0,1-.44,1.47-1.45,1.39-.12,0-.24,0-.36,0-2.46,0-2.46,0-2.93-2.34A8.86,8.86,0,0,1,66,31.67,9.92,9.92,0,0,1,59.83,28a11.62,11.62,0,0,1,.94-15.36C64.7,8.92,70.2,8.93,74.57,12.81ZM62,20.76c-.06,3.86,2.57,6.8,6.13,6.86A6.43,6.43,0,0,0,74.72,21a6.42,6.42,0,0,0-6.19-6.84C64.78,14.1,62.09,16.83,62,20.76Z" style="fill:#3b5ba8"/><path d="M131.63,20.92a10.92,10.92,0,1,1-21.83,0,10.92,10.92,0,1,1,21.83,0Zm-4.57,0c0-3.92-2.65-6.76-6.34-6.76a6.38,6.38,0,0,0-6.35,6.67,6.36,6.36,0,1,0,12.69.09Z" style="fill:#3b5ba8"/><path d="M49.82,28.94c-2.44,2.72-5.38,3.25-8.63,2.72a7.88,7.88,0,0,1-6.65-7.55c-.14-4.11-.06-8.23-.1-12.34,0-.9.42-1.28,1.3-1.34,3.16-.21,3.26-.13,3.26,3s0,6.07,0,9.1c.1,5,4.15,6,7.39,5.05a4.91,4.91,0,0,0,3.47-4.81c.07-3.51,0-7,0-10.54,0-1.55.22-1.76,1.81-1.78,2.71,0,2.71,0,2.71,2.67V29.52c0,1.61-.13,1.73-1.69,1.74h-.47C50.08,31.26,50.08,31.26,49.82,28.94Z" style="fill:#3b5ba8"/><path d="M91.07,20.76c.13-4.14,1.64-7.59,5.43-9.59a11.18,11.18,0,0,1,11.31.32c1.39.79,1.43,1.14.52,2.43-.19.27-.39.51-.55.79a1.25,1.25,0,0,1-2,.45,6.84,6.84,0,0,0-4.57-1.1,6.54,6.54,0,0,0-5.51,7.45c.5,5.13,5,7.58,9.56,5.28.54-.27,1.1-.93,1.73-.45a5.62,5.62,0,0,1,1.94,2.52c.16.47-.28.8-.65,1.05-5.26,3.68-15,2.46-17-6.4A12.1,12.1,0,0,1,91.07,20.76Z" style="fill:#3b5ba8"/><path d="M83.64,16V2.18c0-1.34.27-1.6,1.6-1.62C88.18.51,88.18.51,88.18,3.4v26c0,1.75-.15,1.89-1.93,1.89-2.61,0-2.61,0-2.61-2.62Z" style="fill:#3b5ba8"/></g></g></svg>