<svg xmlns="http://www.w3.org/2000/svg" viewBox="0 0 344.38 344.44"><g id="图层_2" data-name="图层 2"><g id="图层_1-2" data-name="图层 1"><path d="M103.64,0c4.91,2.37,6.44,6.3,6.07,11.63-.38,5.6,0,11.25-.12,16.88-.1,4.84-3.37,8.07-7.69,7.91-4.14-.15-7.1-3.27-7.2-7.91-.12-5.63.27-11.28-.12-16.88C94.22,6.3,95.75,2.37,100.65,0Z" style="fill:#414042"/><path d="M139.52,0c4.91,2.37,6.44,6.3,6.07,11.63-.38,5.6,0,11.25-.12,16.88-.11,4.84-3.37,8.07-7.69,7.91-4.14-.15-7.1-3.27-7.2-7.91-.12-5.63.27-11.28-.12-16.88-.37-5.33,1.16-9.26,6.07-11.63Z" style="fill:#414042"/><path d="M175.4,0c4.9,2.37,6.43,6.3,6.07,11.63-.39,5.6,0,11.25-.12,16.88-.11,4.84-3.37,8.07-7.7,7.91-4.14-.15-7.1-3.27-7.19-7.91-.12-5.63.26-11.28-.12-16.88C166,6.3,167.5,2.37,172.41,0Z" style="fill:#414042"/><path d="M211.27,0c4.91,2.37,6.44,6.3,6.07,11.63-.38,5.6,0,11.25-.12,16.88-.1,4.84-3.37,8.07-7.69,7.91-4.14-.15-7.1-3.27-7.2-7.91-.12-5.63.27-11.28-.12-16.88-.36-5.33,1.17-9.26,6.07-11.63Z" style="fill:#414042"/><path d="M244.16,0c4.91,2.37,6.44,6.3,6.07,11.63-.38,5.6,0,11.25-.12,16.88-.11,4.84-3.37,8.07-7.69,7.91-4.14-.15-7.1-3.27-7.2-7.91-.12-5.63.27-11.28-.12-16.88-.37-5.33,1.16-9.26,6.07-11.63Z" style="fill:#414042"/><path d="M0,100.67c2.37-4.91,6.3-6.44,11.62-6.07,5.61.38,11.26,0,16.88.12,4.84.11,8.07,3.37,7.92,7.69-.16,4.14-3.27,7.1-7.92,7.2-5.62.12-11.27-.26-16.88.12-5.32.37-9.25-1.16-11.62-6.07Z" style="fill:#414042"/><path d="M0,136.55c2.37-4.91,6.3-6.44,11.62-6.07,5.61.39,11.26,0,16.88.12,4.84.11,8.07,3.37,7.92,7.69-.16,4.15-3.27,7.11-7.92,7.21-5.62.11-11.27-.27-16.88.11C6.3,146,2.37,144.45,0,139.54Z" style="fill:#414042"/><path d="M0,172.43c2.37-4.9,6.3-6.43,11.62-6.07,5.61.39,11.26,0,16.88.12,4.84.11,8.07,3.37,7.92,7.7-.16,4.14-3.27,7.1-7.92,7.2-5.62.12-11.27-.27-16.88.12-5.32.36-9.25-1.17-11.62-6.07Z" style="fill:#414042"/><path d="M0,208.32c2.37-4.91,6.3-6.44,11.62-6.07,5.61.38,11.26,0,16.88.12,4.84.1,8.07,3.37,7.92,7.69-.16,4.14-3.27,7.1-7.92,7.2-5.62.12-11.27-.27-16.88.12-5.32.37-9.25-1.16-11.62-6.07Z" style="fill:#414042"/><path d="M0,244.2c2.37-4.91,6.3-6.44,11.62-6.07,5.61.38,11.26,0,16.88.12,4.84.1,8.07,3.37,7.92,7.69-.16,4.14-3.27,7.1-7.92,7.2-5.62.12-11.27-.26-16.88.12-5.32.37-9.25-1.16-11.62-6.07Z" style="fill:#414042"/><path d="M172.35,52.7c19.57.67,39.16-.54,58.75,1,33.32,2.67,58,26.65,59.8,60.14a1082.7,1082.7,0,0,1,0,118c-1.78,32.31-26.79,57.28-59.15,59a1091.52,1091.52,0,0,1-118.48,0c-32.64-1.77-57.53-26.71-59.3-59.42a1095.45,1095.45,0,0,1,0-118c1.78-33,26.65-57.13,59.66-59.76C133.18,52.17,152.77,53.37,172.35,52.7Z" style="fill:#3e3e40"/><path d="M326.39,94.69c3.31,0,6.63-.08,9.94,0,4.87.14,8.13,3.28,8,7.59-.08,4.12-3.23,7.22-7.82,7.31q-10.19.18-20.37,0c-4.58-.09-7.73-3.21-7.8-7.33-.07-4.31,3.19-7.43,8.07-7.57C319.76,94.61,323.08,94.69,326.39,94.69Z" style="fill:#414042"/><path d="M326.87,130.57c3.14,0,6.29-.08,9.44,0,4.87.15,8.14,3.27,8.06,7.57-.07,4.12-3.22,7.24-7.8,7.33q-10.19.19-20.37,0c-4.58-.09-7.74-3.19-7.82-7.31-.08-4.31,3.18-7.39,8.05-7.61h10.44Z" style="fill:#414042"/><path d="M327,166.47c3.32,0,6.64-.14,9.94,0,4.48.22,7.59,3.53,7.45,7.66a7.33,7.33,0,0,1-7.4,7.2c-7.12.16-14.25.18-21.36,0a7.41,7.41,0,0,1-.05-14.82C319.35,166.31,323.16,166.47,327,166.47Z" style="fill:#414042"/><path d="M326.63,202.34c3.31,0,6.62-.1,9.93,0,4.58.17,7.74,3.21,7.81,7.33a7.39,7.39,0,0,1-7.56,7.55q-10.43.24-20.87,0a7.4,7.4,0,0,1-7.56-7.55c.08-4.12,3.23-7.09,7.81-7.35h10.44Z" style="fill:#414042"/><path d="M326.21,253.16c-3.48,0-7,.13-10.43,0a7.43,7.43,0,1,1,.08-14.86c6.95-.17,13.91-.15,20.87,0a7.44,7.44,0,0,1,7.65,7.47c0,4.12-3.19,7.24-7.73,7.41C333.17,253.27,329.69,253.17,326.21,253.16Z" style="fill:#414042"/><path d="M109.61,326.56c0,3.47.14,7,0,10.43a7.41,7.41,0,0,1-7.68,7.42A7.32,7.32,0,0,1,94.73,337c-.16-7.12-.18-14.25,0-21.37a7.41,7.41,0,0,1,14.82,0C109.76,319.26,109.6,322.91,109.61,326.56Z" style="fill:#414042"/><path d="M145.5,326.41c0,3.32.08,6.63,0,9.94-.14,4.88-3.26,8.15-7.56,8.08-4.12-.07-7.25-3.22-7.33-7.8q-.19-10.19,0-20.37c.09-4.59,3.18-7.74,7.31-7.83,4.31-.08,7.44,3.17,7.59,8C145.58,319.79,145.5,323.1,145.5,326.41Z" style="fill:#414042"/><path d="M166.43,326.56c0-3.47-.11-7,0-10.43.17-4.53,3.33-7.7,7.43-7.71s7.35,3.16,7.45,7.69c.14,6.95.15,13.92,0,20.87a7.43,7.43,0,0,1-14.85,0C166.31,333.53,166.44,330,166.43,326.56Z" style="fill:#414042"/><path d="M217.25,326.35c0,3.48.11,7,0,10.44-.18,4.51-3.38,7.67-7.49,7.65s-7.3-3.2-7.39-7.74c-.13-7-.15-13.92,0-20.87a7.34,7.34,0,0,1,7.22-7.39c4.13-.12,7.43,3,7.63,7.48C217.37,319.39,217.25,322.87,217.25,326.35Z" style="fill:#414042"/><path d="M250.14,326.92c0,3.14.08,6.29,0,9.44-.15,4.88-3.26,8.14-7.57,8.07-4.12-.07-7.24-3.23-7.32-7.8q-.19-10.19,0-20.38c.09-4.58,3.19-7.73,7.31-7.82,4.31-.08,7.45,3.18,7.59,8.05C250.22,320,250.14,323.44,250.14,326.92Z" style="fill:#414042"/><path d="M112.19,163.28c0-31.64,23-57.06,54.26-60s58.93,17.41,64.5,48.21c4.47,24.66-3.1,45.45-23.36,60.91-2.42,1.84-2.84,3.21-1.69,5.91,2.41,5.7,4.53,11.53,6.63,17.35,1.5,4.15.46,5.72-3.92,5.66-14.62-.19-11.6,2.18-16.78-11-3.18-8.09-3.17-8.09-12.64-7C142.51,227.49,112.16,200.29,112.19,163.28Zm86.11,35c10.16-9.12,14.57-19.95,15.27-32.58,1.72-31.36-25.35-53.62-54.39-44.17-18,5.86-26.79,19.63-28.32,37.9C128.3,190,151.65,211.31,179,207c3.08-.49,3.37-1.4,2.32-4-2.88-7.14-5.62-14.35-8.3-21.58-1.53-4.15-.55-5.48,3.95-5.62,2.57-.07,5.16.12,7.72,0,3.59-.23,5.56,1.35,6.74,4.7C193.48,186.2,195.83,191.91,198.3,198.32Z" style="fill:#f7f7f7"/></g></g></svg>