<svg id="图层_1" data-name="图层 1" xmlns="http://www.w3.org/2000/svg" viewBox="0 0 320 320"><path d="M167.25,406.63l-17.39-23.16c-2.89-3.92-2.49-4.94,2.4-5.22a10.57,10.57,0,0,0,8.2-4.11c4.79-6.07,11.39-9.8,18.79-12.42,19.58-6.81,39-7.56,58.26,1.22,9.79,4.38,14.49,8.87,18.29,18.48.7-3.08,1.6-5.51,1.9-7.93,1-9.62,1.7-19.14,0-28.85-1-5.79-3.9-8-9.3-9.62-14.49-4.2-29.18-8.31-44.57-7.75a59.71,59.71,0,0,0-17.19,3.46c-5.1,1.77-9.89,4.76-14.49,7.56a25.67,25.67,0,0,0-10.49,11.76,10.21,10.21,0,0,1-4.8,4.67c-3,1.12-5-1.12-4.2-4.11a11.18,11.18,0,0,1,1.9-3.73c5.3-6.26,5.8-13.63,4.2-20.73a172.16,172.16,0,0,0-7.9-25.86c-5.59-14.47-13.89-27.63-27-37.43a97.29,97.29,0,0,0-17.69-10.55c-2.5-1.31-6.19-.65-9.29-.93-1.3-.1-2.7-.38-4.1-.47.6-1.31.8-2.8,1.8-3.83,3.9-4.11,8.29-7.93,12.09-12.23,12.59-14.1,21.69-30,25.09-48.26A25.72,25.72,0,0,0,131,174c-2.6-7.37-6.3-14.47-9.8-21.56-.7-1.4-2.3-2.43-3.6-3.36s-3.59-1.22-3.69-2.24c-.6-2.24-.1-4.86-.1-7.29a11.31,11.31,0,0,1,1.9,0c5.79,6.26,13.89,6.82,21.68,7.1a142.05,142.05,0,0,0,68.36-13.82,96.06,96.06,0,0,0,38.18-32.95c2.09-3.08,2.39-7.1,3.69-10.55.3-.93.7-2.15,1.5-2.43s2,.37,3,.75c.5.19.8.84,1.1,1.31,12.39,20,32.08,31.46,54.17,40.05,12.29,4.66,24.78,9.33,38.17,10.82,9.3.94,18.69,1.12,28-.93,3.8-.84,6.8-2.43,9-5.6.6-.84,2.6-1.68,3.3-1.31,1.7.66,3.39,1.87,2.4,4.3-15.39,36.87-12.5,73.19,4.39,108.94,4.7,9.9,9.9,19.42,18.49,26.89.9.75,1.2,2.15,1.7,3.27a20.83,20.83,0,0,1-3.9,1.21c-36.27,1.12-65.26,15-85.84,43.13-7.8,10.64-11.3,22.69-9.5,35.85.4,2.43,1,3.27,3.8,3.46,14.19.93,28.28,2.14,42.37,3.36,3.6.28,4.4,2.24,2.6,5.13-.7,1.21-1.3,2.52-1.9,3.83-5.69,16.06-17.39,27.26-32.88,35.47H314.26a8.31,8.31,0,0,1,2.2-1.21A65.3,65.3,0,0,0,345.84,386a53.13,53.13,0,0,0,10.6-19.14l-41.28-4.11c1,2.71,1.6,4.76,2.4,6.81,1,2.53,0,3.93-2.7,3.93a7.86,7.86,0,0,1-4.5-1.68c-2.69-2.06-5-4.39-7.69-6.54a4.64,4.64,0,0,0-2.9-1.12c-12.39,1.21-23.18,5.51-31.18,14.66a29,29,0,0,0-4.7,8.12c-2.7,6.53-5,13.26-7.39,19.88H245.4c4.7-6.16,4.8-13.25,5.3-20.35.5-8.4-3.3-14.28-11.19-18.3-19.89-10.17-39.88-8.3-59.76-.28-4.5,1.78-8.6,4.95-12.2,8.22s-6.89,6.53-12.79,6.72c.9,1.21,1.4,2,1.9,2.62l16.49,21.28h-5.9ZM401.41,270.79c-27.09-38.74-37.68-80.28-24-126.31-25,4.11-47.07-2.24-68.85-10.36S267.19,114.8,252.3,97.06a96,96,0,0,1-33.08,35c-23.88,14.75-50.77,19.88-79.05,19.23-5-.1-10.09-1.22-15-1.78,3.1,6.35,6.9,12.42,9.09,18.86,1.9,5.79,3.5,12.14,2.7,17.93-2.6,20-12.89,36.87-26.88,51.81-2.6,2.8-5.4,5.41-7.8,7.75,4.7,2,9.1,3.64,13.3,5.6,9.79,4.67,17.38,11.85,24.18,19.7,12.59,14.37,19.89,31.18,24.69,49.1,1.19,4.48,1.59,9.24,2.39,14.29,1.9-1.12,3.6-2.06,5.2-3.08a57.71,57.71,0,0,1,32.88-9c16.79.47,32.68,4.2,48.37,9.53,16.79,5.69,31.78,14.09,46,24.08,2.4,1.77,5,3.36,8.1,5.51-.2-1.31-.3-1.87-.4-2.43-3.2-14.94-.3-28.94,8.19-41.82,14.19-21.57,35-35,60.66-42C384.22,273,393.11,272.19,401.41,270.79ZM294.87,360l.4-1.21-29.08-17.27V373A48.12,48.12,0,0,1,294.87,360Z" transform="translate(-92.8 -86.81)"/><path d="M173.15,406.63l-16.69-21.38a31.89,31.89,0,0,1-1.9-2.62c5.9-.09,9.1-3.45,12.79-6.72a43.63,43.63,0,0,1,12.2-8.21c19.88-8,39.87-9.9,59.76.28,7.89,4,11.69,9.8,11.19,18.3-.4,7.09-.5,14.28-5.3,20.35Z" transform="translate(-92.8 -86.81)" style="fill:#89ec52"/><path d="M256.3,406.63c2.4-6.63,4.69-13.26,7.39-19.89a30.61,30.61,0,0,1,4.7-8.12c8-9.15,18.79-13.44,31.18-14.66a4.7,4.7,0,0,1,2.9,1.12c2.6,2.06,5,4.48,7.69,6.54a9.78,9.78,0,0,0,4.5,1.68c2.7,0,3.7-1.49,2.7-3.92-.8-2.06-1.5-4.11-2.4-6.82l41.28,4.11a51.6,51.6,0,0,1-10.6,19.14,64.51,64.51,0,0,1-29.38,19.6c-.7.38-1.5.75-2.2,1.22Z" transform="translate(-92.8 -86.81)" style="fill:#89ec52"/><path d="M401.41,270.79c-8.3,1.4-17.09,2.24-25.39,4.48-25.68,6.91-46.57,20.45-60.66,42-8.49,13-11.39,26.89-8.19,41.83.1.56.1,1.12.4,2.43-3.1-2.06-5.6-3.74-8.1-5.51-14.19-10-29.28-18.39-46-24.09-15.59-5.23-31.58-9.05-48.37-9.52a58,58,0,0,0-32.88,9l-5.2,3.08c-.8-5-1.2-9.8-2.39-14.28-4.8-17.83-12.2-34.73-24.69-49.11-6.8-7.75-14.39-15-24.18-19.69-4.2-2.06-8.7-3.65-13.3-5.61,2.4-2.33,5.2-4.94,7.8-7.74,14-14.94,24.28-31.75,26.88-51.82.7-5.79-.8-12.23-2.7-17.92-2.19-6.54-5.89-12.6-9.09-18.86,4.9.65,9.89,1.68,15,1.77,28.28.56,55.17-4.57,79-19.23A94.31,94.31,0,0,0,252.5,97C267.39,114.7,287,125.9,308.77,134s43.77,14.37,68.85,10.36C363.73,190.51,374.22,232.14,401.41,270.79ZM327,236c.1-11.39-3-22.22-6.79-32.86a48.68,48.68,0,0,0-24.29-27.17c-12.19-6.25-25.48-9.05-39.37-10.08-11.2-.75-22.39-1.77-33.58.56-6.5,1.4-12.49,3.36-16.59,8.78-6.4,8.4-11.89,17.27-15.29,27.35-2.7,8-6.2,15.78-6.2,24.27,0,19.14,3.3,37,20.09,50.7,15.19,12.41,32.58,19.13,52.27,18.29,18.19-.84,35.38-5.51,49.47-18.11C320,266,326.65,252.59,327,236Z" transform="translate(-92.8 -86.81)" style="fill:#fef14e"/><path d="M327,236c-.3,16.62-7,30.06-20.18,41.73-14.19,12.6-31.28,17.27-49.47,18.11-19.79.94-37.18-5.88-52.37-18.29-16.79-13.73-20-31.47-20.09-50.7,0-8.59,3.6-16.33,6.2-24.27,3.3-10.08,8.89-18.86,15.29-27.35,4.1-5.42,10.09-7.47,16.59-8.78,11.09-2.33,22.38-1.4,33.58-.56,13.79.93,27.18,3.74,39.37,10.08a48.61,48.61,0,0,1,24.29,27.17C324,213.75,327,224.58,327,236ZM239,170.34c-4.2.66-11.49,1.5-18.59,3.18a17.8,17.8,0,0,0-7.69,4.38c-2.4,2.24-3.9,5.33-5.9,7.94-14.19,18.58-21,38.84-14.79,61.61,1.7,6.17,3.6,12.7,7.29,17.93a62.13,62.13,0,0,0,27,21c19.68,8.31,39.67,6.45,58.86-1.4,6.8-2.8,12.49-8,18.49-12.41,9.59-7.19,14.49-17.09,16.69-28.1,2.4-12.33-.4-24.28-3.7-36.13-4.6-17.27-16.49-27.45-34.28-32.58C269.39,171.93,255.8,171.37,239,170.34Z" transform="translate(-92.8 -86.81)"/><path d="M239,170.34c16.79,1,30.38,1.5,43.47,5.32,17.79,5.14,29.58,15.31,34.28,32.58,3.2,11.95,6.2,23.9,3.7,36.13-2.2,11-7.1,20.82-16.69,28.1-5.9,4.48-11.59,9.71-18.49,12.42-19.19,7.84-39.18,9.62-58.86,1.4a62.13,62.13,0,0,1-27-21c-3.69-5.23-5.59-11.67-7.29-17.93-6.2-22.78.6-43,14.79-61.61,2-2.62,3.5-5.7,5.89-7.94a17,17,0,0,1,7.7-4.39C227.52,171.93,234.81,171,239,170.34Zm41.07,77c.3-5.41-1.7-7.09-7.39-6.44-1.3.09-2.7.09-4.1.19-9.29,1.21-18.79,2.52-28.08,3.92-3.1.37-3.9,2.14-2.6,4.66s2.3,4.86,3.6,7.1c5.79,9.43,15.89,13.16,25.58,9.62C276.49,263,279.48,256,280.08,247.36ZM246,223.74c-1.89-3-3-5.51-4.79-7.47-2.1-2.24-4.7-1.77-5.6,1.12a16.54,16.54,0,0,0-.2,7.66,4.55,4.55,0,0,0,5.7,3.64c1.9-.56,3.1-3,4.89-4.95Zm30.29-4.48c0-4.39-3-8.49-6-8.68-2.4-.09-4.2,2.15-4.3,5-.1,3.64,3.4,7.47,6.7,7.38,3-.1,3.5-2.06,3.6-3.74Z" transform="translate(-92.8 -86.81)" style="fill:#fef14e"/><path d="M246,223.74c-1.89,2-3,4.3-4.89,4.86a4.54,4.54,0,0,1-5.7-3.64,18,18,0,0,1,.2-7.66c.9-2.89,3.5-3.36,5.6-1.12C243.11,218.23,244.21,220.75,246,223.74Z" transform="translate(-92.8 -86.81)"/><path d="M276.29,219.35c-.1,1.68-.6,3.65-3.5,3.74-3.4.09-6.8-3.74-6.7-7.38,0-2.89,1.9-5.22,4.3-5C273.19,210.77,276.29,214.87,276.29,219.35Z" transform="translate(-92.8 -86.81)"/><polygon points="144.91 162.6 148.41 169.51 151.41 173.71 153.4 175.76 155.4 177.26 157.8 178.75 160.4 179.97 163.1 180.71 166.6 180.99 169.19 180.99 171.79 180.53 174.09 179.87 176.29 178.84 179.49 177.07 181.49 175.39 183.59 172.96 184.78 170.72 186.18 167.27 186.78 164.66 187.28 160.27 187.28 158.4 186.68 156.25 185.88 155.13 184.28 154.2 182.79 154.01 176.69 154.2 147.11 158.4 145.51 158.96 144.71 159.89 144.61 161.48 144.91 162.6"/><path d="M240.51,248.57" transform="translate(-92.8 -86.81)" style="fill:#fd733b"/><polygon points="149.21 162.13 151.6 167.18 154.4 170.72 157.4 173.9 161.4 176.51 163.9 177.54 166.2 177.82 168.4 177.82 170.69 177.54 172.69 176.88 175.39 175.48 178.09 173.9 180.29 171.75 181.89 169.14 182.99 165.5 183.88 162.13 184.28 160.08 183.38 157.93 181.09 156.53 148.71 160.92 149.21 162.13" style="fill:#fd733b"/></svg>